<svg width="1000" height="488" viewBox="0 0 1000 488" fill="none" xmlns="http://www.w3.org/2000/svg">
<path d="M116.751 372.705C118.65 371.33 120.517 370.008 122.322 368.632C156.415 343.069 179.339 304.465 189.893 284.046V207.252H116.751V372.705Z" fill="white"/>
<path d="M233.746 308.563C252.043 325.884 276.701 347.39 306.844 369.484V174.351H233.746V176.274V308.563Z" fill="white"/>
<path d="M350.517 399.119C372.86 413.092 397.251 426.606 423.527 438.696V99.2794H350.517V399.119Z" fill="white"/>
<path d="M0.00573091 86.4107V433.774C10.1208 429.679 41.0944 416.778 73.0958 399.481V84.9302V81.8947H0L0.00573091 86.4107Z" fill="white"/>
<path d="M467.363 456.829C490.598 465.347 515.021 472.489 540.461 477.81V296.096H467.363V456.829Z" fill="white"/>
<path d="M700.979 481.282C727.068 476.187 751.409 468.393 774.038 458.529V139.663H700.979V481.282Z" fill="white"/>
<path d="M890.91 380.785V104.238L890.922 102.066H817.776V436.023C845.34 419.501 869.679 400.431 890.91 380.785Z" fill="white"/>
<path d="M934.645 334.814C976.596 285.183 997.428 242.652 997.428 242.652C997.428 242.652 999.487 238.531 999.899 236.052H934.645V334.814Z" fill="white"/>
<path d="M584.321 0.000297868C584.233 0.00602878 584.146 0.0117606 584.058 0.0251327V484.829C597.122 486.329 610.41 487.378 623.949 487.752C635.338 488.05 646.355 487.664 657.205 486.94V0.000297868H584.321Z" fill="white"/>
</svg>
