<svg width="1000" height="906" viewBox="0 0 1000 906" fill="none" xmlns="http://www.w3.org/2000/svg">
<path d="M734.529 176.521L995.224 179.461L627.999 534.561L999.712 905.098H747.166L499.108 642.634L246.601 905.098H0" fill="white"/>
<path d="M327.03 70.6548C327.03 64.0382 324.786 57.4216 320.338 52.2752C315.85 47.1288 309.157 44.188 302.464 44.188C301.716 44.188 301.716 44.188 300.968 44.188C295.024 44.188 288.292 46.3935 283.843 50.8046C278.607 55.2161 275.655 61.8327 275.655 68.4493C274.907 82.4182 286.048 94.1812 299.473 94.9165C314.393 94.9165 326.282 84.6237 327.03 70.6548Z" fill="white"/>
<path d="M111.018 63.2935C111.018 56.6769 108.774 50.0599 104.286 44.9139C99.8376 39.7675 93.1449 36.8267 86.413 36.8267C85.665 36.8267 85.6649 36.8267 84.9169 36.8267C78.9723 36.8267 72.2799 39.0322 67.7919 43.4433C62.5953 47.8543 59.6034 54.4713 59.6034 61.088C58.8554 75.0565 70.036 86.8199 83.4605 87.5548C98.3416 87.5548 110.27 77.262 111.018 63.2935Z" fill="white"/>
<path d="M111.018 276.506C111.018 269.889 108.774 263.273 104.286 258.126C99.8376 252.98 93.1449 250.039 86.413 250.039C85.665 250.039 85.6649 250.039 84.9169 250.039C78.9723 250.039 72.2799 252.245 67.7919 256.656C62.5953 261.067 59.6034 267.684 59.6034 274.301C58.8554 288.269 70.036 300.032 83.4605 300.768C98.3416 300.768 110.27 290.475 111.018 276.506Z" fill="white"/>
<path d="M356.084 100.8C361.32 92.7128 364.272 83.1553 364.272 72.8626C365.02 56.6885 359.824 40.514 348.643 28.0157C337.463 15.5174 321.834 8.16551 305.417 7.4302C288.292 6.69529 272.663 11.8417 259.986 22.8694C247.349 33.8974 239.869 49.3366 239.121 65.5107C237.665 99.3294 263.726 128.737 298.725 130.943C300.221 130.943 300.969 130.943 302.465 130.943C311.401 130.943 321.086 128.737 329.274 125.061L512.533 319.152L538.594 293.421L356.084 100.8ZM300.221 94.1834C286.048 93.4481 275.655 81.6847 276.364 67.7162C276.364 61.0996 279.355 54.483 284.591 50.0715C289.04 45.6604 295.024 43.4549 301.717 43.4549C302.465 43.4549 302.464 43.4549 303.212 43.4549C309.905 43.4549 316.598 46.3957 321.086 51.5421C325.534 56.6885 327.778 63.3051 327.778 69.9217C326.282 84.6256 314.393 94.9183 300.221 94.1834Z" fill="white"/>
<path d="M139.324 306.651C144.52 297.829 147.512 288.272 147.512 278.714C148.26 262.54 143.024 246.365 131.883 233.867C120.702 221.369 105.034 214.017 88.6568 213.282C72.2797 212.547 55.9026 217.693 43.2261 228.721C30.5496 239.749 23.1091 255.188 22.3611 271.362C20.8651 305.181 46.9267 334.589 81.9643 336.794C83.4603 336.794 84.2083 336.794 85.6649 336.794C94.6015 336.794 104.286 334.589 112.514 330.913L299.473 528.681L325.534 502.949L139.324 306.651ZM84.2082 300.035C70.0357 299.299 59.6031 287.536 60.3511 273.567C60.3511 266.951 63.3431 260.334 68.5396 255.923C73.0276 251.512 78.9724 249.306 85.6649 249.306C86.4129 249.306 86.4127 249.306 87.1607 249.306C93.8926 249.306 100.585 252.247 105.034 257.393C109.522 262.54 111.766 269.156 111.766 275.773C110.27 290.477 98.3413 300.77 84.2082 300.035Z" fill="white"/>
<path d="M139.323 94.1736C144.52 85.3515 147.512 75.794 148.26 65.5012C149.008 49.3268 143.772 33.1527 132.631 20.6544C121.45 8.15611 105.782 0.80419 89.4046 0.0688797C73.0275 -0.666037 56.611 4.47995 43.9739 15.508C31.2974 26.5361 23.8569 41.9749 23.1089 58.1493C21.6129 91.9681 47.6745 121.376 82.7121 123.582C84.2081 123.582 84.9168 123.582 86.4127 123.582C95.3493 123.582 104.286 121.376 112.514 118.435L403.758 426.481L429.82 400.749L139.323 94.1736ZM84.2081 86.8217C70.0357 86.0868 59.603 74.3234 60.351 60.3549C60.351 53.7383 63.343 47.1212 68.5396 42.7102C73.0275 38.2991 78.9723 36.0936 85.6649 36.0936C86.4129 36.0936 86.4126 36.0936 87.1606 36.0936C93.8926 36.0936 100.585 39.0344 105.034 44.1804C109.522 49.3268 111.766 55.9438 111.766 62.5604C110.27 77.2642 98.3413 87.557 84.2081 86.8217Z" fill="white"/>
</svg>
