<svg width="879" height="965" viewBox="0 0 879 965" fill="none" xmlns="http://www.w3.org/2000/svg">
<path d="M689.882 114.5H206.882C117.282 106.5 136.499 33.5 155.499 0C86.9989 10.5 27.2237 64 19.3822 136.5C8.99885 232.5 107.999 266 163.882 263.5H318.882C196.382 441.5 -9.34604e-05 770.5 -0.000244141 856C-0.000389236 938.331 71 967.5 123 964C228 956.933 264.049 868.333 269.882 835.5H247.5C220.001 832 248.999 797.5 264 764C302.5 695.5 453.118 396.5 549 263.5L771.882 256C846.282 257.2 882.616 190.5 878 150C865.6 41.2 795.548 7.5 760.882 4C806.882 91.2 732.715 114 689.882 114.5Z" fill="white"/>
</svg>
