<svg width="91" height="41" viewBox="0 0 91 41" fill="none" xmlns="http://www.w3.org/2000/svg">
<path fill-rule="evenodd" clip-rule="evenodd" d="M23.6492 33.829C23.6492 33.829 23.8398 34.6491 24.3102 34.34C24.7805 34.0315 24.9712 33.5684 25.4415 33.5684C25.9118 33.5684 27.8724 33.2081 28.3428 33.5684C28.8131 33.9286 28.8602 33.6195 29.0953 33.6195C29.3305 33.6195 30.0213 33.7394 30.0213 33.7394C30.6226 33.6781 30.5001 32.7439 30.0655 32.4706C29.4382 31.9904 28.5937 31.6818 27.9665 31.2011C27.9037 30.738 27.8411 30.2749 27.7784 29.8118C27.9508 29.572 28.1232 29.3316 28.2958 29.0913C28.2958 28.3197 28.2958 27.5478 28.2958 26.776C28.2017 26.5701 28.1076 26.3643 28.0135 26.1584C27.9821 25.5753 27.9508 24.9922 27.9194 24.4089C27.8411 24.306 27.7626 24.2031 27.6843 24.1002C27.6843 23.8773 27.6843 23.6543 27.6843 23.4312C27.8411 23.2083 28.1587 22.9853 28.3156 22.7623C28.3626 22.3335 28.1524 22.0308 28.1994 21.602C28.0896 21.0532 28.0762 20.3781 27.9665 19.8293C27.9665 19.1603 27.9665 18.4913 27.9665 17.8224C28.4215 17.6899 28.5317 17.4928 28.5642 17.2934C28.606 17.0367 28.4774 16.7346 28.3428 16.1243C28.2801 12.9169 28.2496 9.58315 28.1869 6.37561C28.4371 5.99228 28.737 5.79398 28.7433 5.50998C28.7482 5.28887 28.5054 5.10454 28.2017 4.85518C28.2017 4.63221 28.2017 4.40935 28.2017 4.18622C28.2017 4.18622 28.7191 3.15703 29.1424 3.15703C29.5657 3.15703 29.848 2.84836 29.848 2.53964C30.2342 1.78955 29.4246 1.71628 29.4246 1.71628C28.5287 1.69811 27.5139 1.74293 26.6399 1.72492C25.8689 1.70888 25.2361 1.62951 24.4859 1.61337C24.1566 1.63063 23.8274 1.64763 23.4981 1.66479C22.6889 1.90498 22.8589 2.33447 23.1689 2.57439C23.5451 2.80589 23.8662 3.07106 24.2977 3.07991C24.8243 3.09062 25.2435 3.25929 25.4266 3.77452C25.4737 5.83283 25.5206 7.89119 25.5676 9.94944C25.5834 11.4675 25.6312 12.9856 25.6468 14.5034C25.6625 16.0212 25.6462 17.5394 25.6617 19.0573C25.6931 20.8413 25.7244 22.6251 25.7558 24.4089C25.7558 24.4089 25.6617 25.0779 25.5206 25.2323C25.3796 25.3866 25.4266 26.7245 25.4266 26.7245C25.9475 27.168 25.8367 27.1059 25.4737 27.7022C25.4421 29.0231 25.4108 30.3437 25.3796 31.6642C25.2541 31.9046 25.1286 32.1449 25.0032 32.3847C25.0032 32.3847 23.6492 33.1602 23.6492 33.829ZM0.870458 40.2256C0.17299 40.0855 0.0422151 39.7556 0.289953 39.5611C0.438619 39.4444 0.83604 39.4486 1.01471 39.3671C1.27616 39.2466 1.54323 39.0889 1.70064 38.8987C1.96966 38.573 1.80647 37.8195 2.12751 37.2056C2.43601 34.6156 2.52843 31.1841 2.22009 30.0298C2.03498 28.2508 2.225 22.3415 2.225 21.5925C2.42985 21.2327 2.50673 21.2033 2.50831 20.5728C2.50885 20.3264 2.67849 19.9429 2.49779 19.6381C2.23569 19.3456 2.31491 18.2022 2.29441 17.5576C2.26409 16.5981 2.33612 16.606 2.60929 15.7367C2.71213 15.4097 2.74697 15.0206 2.60929 14.707C2.38672 14.2002 2.06492 14.7857 2.08634 13.768C2.13885 11.2981 2.23308 8.81336 2.16661 6.34454C2.18101 6.12455 2.55585 6.08438 2.62924 5.87643C2.72254 5.61205 2.75345 5.28505 2.62924 5.03393C2.55891 4.89159 2.16524 5.07673 2.04975 4.96886C1.34399 4.30975 0.45713 3.89571 0.0481632 3.01629C-0.110356 2.67522 0.145307 1.92044 0.481358 1.75731C1.03809 1.48696 2.07364 1.76643 2.68279 1.66373C3.01037 1.60858 3.21768 1.41806 3.54951 1.40378C6.13774 1.29235 8.8011 1.03946 11.3801 1.28919C11.7929 1.32916 11.9289 2.04098 12.3052 2.2177C12.821 2.45997 13.5753 2.40806 13.9706 2.8215C14.6044 3.48392 15.059 4.02964 15.1395 4.94792C15.2382 6.07483 15.4363 7.35123 15.4266 8.21686C15.4184 8.94174 15.1955 9.596 14.8649 10.2195C14.412 11.0739 13.8729 11.8714 13.2891 12.7155C12.9526 13.2019 12.3537 13.6536 12.2127 14.2083C12.0671 14.7818 13.5829 14.3608 13.8931 14.8629C14.1912 15.3456 13.6388 15.9112 13.8054 16.4552C13.9542 16.9403 14.8137 16.9876 14.9157 17.4849C15.1789 18.7685 14.5981 20.1258 14.8232 21.4167C14.8952 21.8301 15.5662 21.8448 15.6314 22.2593C15.7106 23.1551 15.6823 24.1033 15.6894 25.0549C15.6969 26.0678 15.7371 27.0853 15.7238 28.0482C15.6983 28.4111 15.2121 28.6234 15.1687 28.9842C15.0529 29.945 15.3907 31.0301 15.1736 31.9723C14.9449 32.9646 14.1287 33.6653 13.8103 34.6321C13.5345 35.4693 13.6127 36.6918 13.1677 37.2168C12.4316 37.4427 11.5153 37.949 10.9355 38.371C10.0883 38.9871 9.54662 39.6932 9.28615 39.7156C8.95519 40.0034 8.25504 39.811 7.84468 39.9608C7.46628 40.0983 7.43062 40.4084 7.03161 40.3578C6.71651 40.3183 6.81472 40.0625 6.56898 39.8595C6.42591 39.7407 6.15078 39.7332 6.01387 39.8595C5.18335 40.5129 5.8028 40.3418 4.85975 40.2565C3.90175 40.1702 2.03705 40.459 0.87084 40.2256H0.870458ZM6.2373 36.468C6.45322 36.0624 6.66914 35.6569 6.88511 35.2508C6.82328 33.9094 6.76167 32.5675 6.69995 31.2256C6.88511 30.9757 7.07011 30.7263 7.25511 30.4764C7.25511 29.1249 7.25511 27.7734 7.25511 26.4217C7.25511 25.8073 7.16749 25.1929 7.16749 24.5787C6.51799 24.0536 6.82856 24.0612 7.35249 23.4553C7.35249 22.8625 7.49878 22.3842 7.49878 21.7912C7.43695 21.292 7.37534 20.7927 7.31362 20.2934C7.40625 20.0438 7.49877 19.7942 7.59125 19.5445C7.59125 18.7937 7.67887 18.1861 7.67887 17.4351C7.67887 16.7301 7.69976 16.4939 7.83166 16.5381C7.96355 16.5822 8.20661 16.907 8.65039 17.324C8.98757 17.6409 9.32497 17.958 9.66226 18.2748C10.2853 18.86 10.892 18.9133 10.6395 19.8722C10.4035 20.7692 11.0817 21.0181 10.871 21.9083C10.7099 22.5883 10.4983 23.004 10.5452 23.4255C10.5731 23.6784 10.6944 23.9334 10.975 24.2488C11.2344 24.5402 11.3208 24.522 11.1658 24.8807C10.9254 25.4365 10.7205 25.7606 10.6964 26.0943C10.6655 26.523 10.9044 26.72 11.114 27.4774C11.2856 28.097 11.2695 28.5077 11.1108 29.1291C10.9228 29.8662 10.7349 30.6032 10.5469 31.3402C10.5257 31.8976 10.4737 32.4556 10.4332 33.0136C10.372 33.8636 10.256 33.8854 9.65129 34.493C9.1019 35.0451 8.39483 35.5173 7.8648 36.0108C7.27888 36.2293 6.82306 36.2495 6.23709 36.468H6.2373ZM7.65286 12.8144C8.12226 12.8278 8.33219 12.8733 8.47772 12.8147C8.6233 12.756 8.70459 12.5932 8.9169 12.1906C9.19111 11.6702 9.59726 11.0198 9.93412 10.9709C10.5016 10.8885 10.7977 10.806 10.7977 10.806C10.7977 10.806 11.0947 10.751 10.9931 10.0357C10.8914 9.32033 10.682 8.63243 10.8665 8.43988C11.0509 8.24734 11.0899 7.6971 10.8936 7.47695C10.6975 7.25696 10.5109 7.03676 10.8279 6.73417C11.1448 6.43152 11.3634 5.92486 10.606 6.00747C9.84863 6.09002 9.85801 5.76962 9.7705 5.54942C9.68288 5.32938 8.85677 5.37963 8.42482 5.35538C7.99332 5.43793 7.63046 5.41038 7.6429 5.85052C7.65549 6.29066 7.58292 8.41244 7.58913 8.63254C7.59535 8.85263 7.65286 12.8144 7.65286 12.8144ZM31.6098 32.1279C31.576 32.3149 31.1367 32.316 31.1705 32.5036C31.2177 32.7653 31.2352 33.174 31.505 33.2081C32.2874 33.3072 33.36 33.0029 34.1358 33.1431C34.4422 33.1985 34.4589 33.7091 34.7398 33.8407C34.9706 33.837 35.3258 33.845 35.6185 33.8407C35.8438 33.7261 35.7832 33.3222 36.0029 33.1969C36.2734 33.0424 36.6424 32.9838 36.9364 33.0893C37.0947 33.1463 36.8787 33.5529 37.0462 33.5726C38.4149 33.522 39.6376 33.6686 40.9326 33.5726C41.1912 33.5311 40.9277 33.1692 41.1395 33.0189C41.3804 32.8479 41.9775 33.1463 42.0182 32.858C42.2285 31.3674 41.9002 29.7031 42.0434 28.2053C42.0893 27.7258 42.56 27.4415 42.6653 26.9709C42.7003 26.8141 42.8925 26.8113 42.9078 26.6569C42.9611 26.1194 42.9514 25.4675 42.8122 24.9382C42.6277 24.7533 42.0637 24.6861 41.8787 24.7703C41.6702 24.9203 41.8598 25.4529 41.7198 25.6656C41.6506 25.771 41.404 25.56 41.3354 25.6656C41.268 25.7694 41.3552 25.9398 41.3861 26.0744C41.4046 26.1551 41.4029 26.2232 41.3354 26.2561C40.9753 26.432 40.445 26.0145 40.1273 26.2561C39.8155 26.4931 40.1656 26.9518 39.9018 27.2392C39.4741 27.705 38.5578 27.9779 38.1319 28.4452C37.6254 29.0007 37.6706 29.5677 37.0886 30.0474C36.633 30.4225 35.8588 30.462 35.3068 30.681C34.6668 30.9352 34.3612 31.4036 33.6965 31.5864C33.4957 31.6419 33.2506 31.2987 33.3121 31.1036C33.8101 29.5256 34.4574 27.9392 34.9951 26.3735C35.3399 25.3691 35.5019 24.7355 35.8745 23.7404C36.2601 22.7106 36.7639 21.4378 37.3935 20.5301C37.5175 20.3513 37.9312 20.468 37.9976 20.2617C38.1622 19.7498 37.8541 19.1696 37.9976 18.6516C38.1036 18.2682 38.5166 17.9003 38.8584 17.6854C39.0893 17.5404 39.4578 17.7425 39.5597 17.4934C39.7977 16.9119 39.5753 16.2959 39.7252 15.6869C39.8263 15.2767 40.1145 15.0253 40.2981 14.6431C40.5415 14.136 40.5237 13.6957 40.7923 13.2008C41.0109 12.7981 41.471 12.2345 41.6034 11.7972C41.7854 11.1968 41.6363 10.9021 41.6955 10.2785C41.7113 10.1106 41.963 10.0177 41.9701 9.84909C42.0553 7.82932 42.1647 5.80239 42.0434 3.78417C42.0336 3.61971 41.6556 3.62681 41.659 3.46213C41.6721 2.84538 41.7487 2.30047 41.7139 1.74463C41.7073 1.63602 41.7456 1.54707 41.6346 1.54254C39.915 1.47203 38.2178 1.51031 36.4971 1.52992C35.0877 1.54585 33.6748 1.43543 32.2687 1.52992C32.056 1.5442 31.8653 1.57995 31.7196 1.73199C31.5798 1.87785 31.5104 2.18914 31.5185 2.38866C31.5555 3.28562 31.5001 4.26215 31.5185 5.34068C31.5218 5.54052 31.9246 5.42094 31.9941 5.60906C32.1878 6.13303 32.2026 6.71759 32.1589 7.27289C32.145 7.45132 31.923 7.69155 31.9274 7.87019C32.0156 8.49109 32.0979 8.9299 32.2138 9.52714C32.2805 9.75811 32.4838 9.93851 32.5433 10.1712C32.6143 10.4494 32.3548 11.0114 32.6472 11.03C32.7444 11.0361 33.0834 11.0914 33.2572 11.03C33.4806 10.9508 33.175 10.5505 33.2572 10.3322C33.3154 10.1775 33.6148 10.1729 33.6416 10.0102C33.7868 9.12645 33.5345 8.09081 33.6779 7.20659C33.7216 6.93714 33.8797 6.65252 34.1172 6.5089C34.3193 6.3866 34.6851 6.69239 34.8311 6.5089C35.0336 6.25432 34.8344 5.96106 34.9595 5.66273C35.1387 5.23581 35.4303 4.84212 35.7832 4.53559C36.1074 4.25394 36.4317 3.91687 36.8629 3.87301C37.8271 3.77512 38.9805 3.86299 40.2862 3.80804C40.4086 3.80271 40.4415 3.98668 40.4509 4.10622C40.4971 4.69483 40.6067 5.49453 40.4509 5.87744C40.2248 6.43317 39.7132 7.05344 39.1939 7.63059C38.8386 8.02522 38.4795 8.37449 38.2053 8.77008C37.8767 9.24432 38.3677 9.89103 38.1994 10.4396C38.0272 11.0008 37.5569 11.5973 37.1924 12.0624C36.8934 12.444 36.4539 12.6393 36.1736 13.0342C35.8236 13.5272 35.6198 14.0127 35.3988 14.5724C35.2151 15.0379 35.0966 15.5291 35.0144 16.0216C34.9495 16.4105 35.1397 16.8501 34.9595 17.2024C34.8275 17.4604 34.5297 17.4128 34.3377 17.6318C34.0714 17.9355 33.9154 18.3249 33.7886 18.7052C33.6383 19.1556 33.626 19.4224 33.3915 19.8369C33.1283 20.3018 32.6001 20.7509 32.3608 21.2278C32.0997 21.7481 32.0698 22.3802 31.9392 22.9454C31.813 23.4919 31.7075 24.0067 31.592 24.5555C31.4505 25.2272 31.3029 25.9096 31.3174 26.5951C31.3218 26.8037 31.5475 26.9473 31.6469 27.1318C31.7308 27.2877 31.9235 27.4478 31.8666 27.6149C31.7888 27.8432 31.3522 27.8597 31.3174 28.098C31.2815 28.344 31.3456 28.5711 31.5304 28.7422C31.691 28.8904 32.0191 28.8259 32.1344 29.0103C32.2585 29.2091 32.2362 29.4979 32.1344 29.7079C32.0498 29.8832 31.7525 29.8406 31.7137 30.0303C31.5558 30.8025 31.7496 31.3525 31.6098 32.1279ZM79.2219 39.7343C79.1188 39.4145 79.3762 39.3522 79.5474 39.1854C79.7977 38.9413 80.0398 38.7031 80.139 38.2224C80.1766 38.0401 80.3675 37.7454 80.4116 37.4534C80.4765 37.027 80.3773 36.5826 80.2584 36.307C80.1025 35.9463 79.8467 35.7582 79.9394 35.4139C79.9722 35.1938 80.4814 35.1666 80.8827 34.9923C81.0932 34.9012 81.2737 34.7227 81.3407 34.5548C81.4285 34.3337 81.1362 34.3715 80.9874 34.0906C80.8287 33.7917 80.8053 33.344 80.6832 33.1213C80.47 32.7333 80.0801 32.2126 80.0659 31.7719C80.0278 30.5962 80.3762 29.4094 80.4209 28.2783C80.4585 27.3298 80.6881 27.1038 80.6139 26.1319C80.5774 25.6479 80.3113 25.2958 80.0365 24.8017C79.8091 24.3922 79.5103 23.987 79.3958 23.6007C79.1924 22.9134 79.3969 22.0987 79.2737 21.3934C79.2497 21.2552 78.8953 21.0861 78.8822 20.9463C78.7906 19.9781 78.9024 18.9866 78.8386 18.029C78.8059 17.8488 78.6565 17.8145 78.639 17.6323C78.5872 17.0955 78.6385 16.5727 78.6368 16.1087C78.6352 15.6992 78.5774 15.3493 78.5774 14.8734C78.5774 14.696 78.4269 14.5745 78.4209 14.3971C78.3844 13.35 78.4291 12.1938 78.4149 11.145C78.3997 10.0285 78.3299 9.01923 78.4209 7.90745C78.4367 7.72002 78.8244 7.72454 78.8168 7.53674C78.7808 6.68481 78.7056 6.34598 78.7257 5.4891C78.7279 5.39024 78.9351 5.1605 78.9433 5.06191C79.0038 4.34902 79.0943 3.63543 78.9084 3.02535C78.7743 2.58345 78.4351 2.44579 78.0458 2.16073C77.7023 1.90892 77.319 1.4996 77.0011 1.27017C76.5944 0.976375 76.3234 0.740071 76.0153 0.300091C75.8299 0.0352821 76.1358 0.0121566 76.4771 0.00240413C76.9155 -0.0101195 77.3942 0.0272937 77.8114 0.0911377C77.9526 0.112721 78.2181 0.350562 78.3517 0.401136C78.6734 0.523068 78.8838 0.364742 79.2132 0.465198C79.4645 0.541992 80.5141 1.07683 80.7966 1.23591C81.1826 1.45323 81.3075 1.76904 81.7104 1.95365C81.7829 1.98685 83.0277 2.3351 83.1722 2.37043C83.5092 2.45266 83.7185 2.21184 84.0555 2.29407C84.447 2.38947 85.1433 2.58222 85.5827 2.71081C85.8303 2.78318 85.9868 3.06915 86.2403 3.1185C87.4698 3.35832 87.2501 2.95773 88.2239 3.90936C88.5107 4.18979 88.9845 4.41499 89.1983 4.75196C89.5003 5.22748 89.5319 5.81034 89.7239 6.3286C89.8733 6.73155 90.207 7.06255 90.286 7.49069C90.4992 8.64293 90.2767 9.84109 90.4212 11.0034C90.4654 11.3585 90.8389 11.733 90.8782 12.0886C91.027 13.4503 91.0521 14.7948 90.8825 16.154C90.8253 16.6122 90.4305 16.7986 90.3602 17.2549C90.2429 18.0205 90.4769 18.8046 90.4212 19.5769C90.3951 19.9468 90.1846 20.3329 89.9861 20.6486C89.8411 20.8785 89.5096 20.9614 89.4033 21.2102C89.1236 21.8636 89.1939 22.7569 89.0641 23.4648C89.0238 24.816 89.0521 25.8643 89.1115 27.2147C89.1535 28.1666 89.2533 29.0209 89.129 29.9658C89.0854 30.293 88.8051 30.4726 88.755 30.7993C88.6165 31.7021 88.7353 32.6294 88.6459 33.538C88.6307 33.6925 88.3962 33.8716 88.3629 34.0235C88.3008 34.8538 88.2413 36.0656 87.8711 37.0004C87.6274 37.617 87.0347 38.2384 86.4655 38.5954C85.9142 38.9413 85.3215 39.0159 84.6863 39.1742C84.285 39.2738 83.8358 39.2258 83.4683 39.4118C83.248 39.5238 83.3958 39.5254 83.1945 39.6661C83.0784 39.7465 82.8778 39.7535 82.7682 39.6661C82.6133 39.5419 82.6613 39.4912 82.4808 39.4076C82.2055 39.2802 81.8467 39.2903 81.567 39.4076C81.3653 39.4923 81.4389 39.6463 81.2229 39.6874C80.7873 39.7705 80.2769 39.8782 79.8059 39.8659C79.524 39.859 79.3015 39.9832 79.2219 39.7343ZM83.3107 9.15944C83.9225 9.12779 84.0424 9.09533 84.5871 9.38129C85.1504 9.67648 85.2681 9.87121 85.6122 10.4046C85.7899 10.5719 85.9671 10.7394 86.1443 10.9066C86.8679 11.5892 87.2092 12.5525 87.5047 13.4553C87.5532 14.4353 87.7686 16.1523 87.2681 17.0416C87.0184 17.4855 86.9197 17.8281 86.8771 18.2048C86.7588 19.2587 86.4529 19.0941 86.1416 19.8922C86.0571 20.1087 86.0756 20.378 86.068 20.8919C86.0407 22.7266 86.0129 24.5615 85.9857 26.3961C85.9682 27.5684 85.7425 28.1277 85.2578 29.2101C84.9731 29.7276 84.8238 30.0612 84.8238 30.6485C84.8238 31.3445 84.6782 31.6653 84.3952 32.2995C84.2229 32.6853 84.05 33.0717 83.8777 33.458C83.6733 33.9158 83.4857 34.08 83.35 34.0187C83.2142 33.9579 83.1302 33.6707 83.1324 33.2262C83.1444 30.9864 83.1564 28.747 83.1684 26.5072C83.1945 24.1259 83.2207 21.7445 83.2469 19.3633C83.2164 18.852 83.236 18.7386 82.8925 18.3594C82.8603 17.5885 82.7082 17.2398 82.4585 16.5059C82.1433 15.9272 82.1793 15.505 82.1717 14.8434C82.152 13.1884 82.1319 11.5332 82.1123 9.87819C82.1003 8.8626 82.3353 9.2098 83.3107 9.15944ZM43.379 37.633C43.1906 36.7323 43.3224 36.0166 43.3718 35.3393C43.3953 35.1778 43.7287 35.3286 43.8192 35.1922C43.9543 34.9881 44.0764 34.7083 43.987 34.4813C43.9335 34.3454 43.8387 34.5329 43.7587 34.4098C43.6482 34.2404 43.687 33.9665 43.8146 33.8087C44.0007 33.578 44.3731 33.6377 44.5003 33.3712C44.6737 33.0077 44.3761 32.5505 44.5003 32.1684C44.5398 32.0469 44.8611 32.2925 44.8918 32.1684C45.0368 31.5838 44.8565 30.9592 44.9478 30.3644C44.9715 30.2094 45.1116 30.1374 45.13 29.9818C45.2076 29.3301 45.248 28.6596 45.13 28.0136C45.0568 27.6126 44.7252 27.3239 44.6681 26.9203C44.4605 25.4565 44.3977 23.8627 44.5904 22.3969C44.7401 21.2589 45.4824 19.4992 45.9183 18.4339C46.191 17.7675 46.3247 17.9753 46.5698 17.2985C46.6447 17.0917 46.6966 16.8507 46.6258 16.6425C46.5374 16.3832 46.2243 16.1851 46.2684 15.9151C46.3224 15.5845 46.7385 15.5928 46.8495 15.2758C47.0003 14.8449 46.6967 14.3394 46.8495 13.9091C47.0292 13.4028 47.6484 13.112 47.8003 12.5971C47.9454 12.1057 47.7899 11.3207 47.9319 10.8284C48.2126 9.85575 48.5498 9.22748 49.0309 8.33287C49.315 7.80464 49.8086 7.35833 50.0304 6.80212C50.2443 6.26621 50.2225 5.55672 50.3173 5.10741C49.9678 4.68033 49.1656 5.2764 48.6394 5.09068C48.3723 4.99651 48.3733 4.56981 48.109 4.46808C47.543 4.43045 47.0018 4.41771 46.5988 4.7131C46.0583 5.10928 46.054 5.57372 45.8427 6.20076C45.5269 7.13769 45.7676 8.19031 45.3735 9.09819C45.2177 9.45722 44.5819 9.55817 44.2766 9.80891C44.115 9.9415 44.0399 10.0797 43.8291 10.0797C43.6181 10.0797 43.4343 10.0085 43.3816 9.80891C43.2745 9.40319 43.4025 8.97019 43.3816 8.55153C43.3652 8.22197 43.1846 7.88676 43.2698 7.56749C43.3141 7.40117 43.7036 7.46559 43.7173 7.29415C43.8845 5.41582 43.6546 3.54958 43.6839 1.7547C43.6942 1.12452 43.8653 1.21795 44.5001 1.21166C45.5691 1.20089 47.2635 1.20898 48.4923 1.20291C50.6483 1.19236 52.8097 1.1137 54.9596 1.17126C55.2796 1.19391 55.6962 1.31003 55.7185 1.62275C55.7638 2.25512 55.3303 2.86488 55.0304 3.42684C54.8718 3.72384 54.5174 3.91799 54.4007 4.23268C54.2022 4.76608 54.4176 5.39812 54.2082 5.92742C54.0801 6.25223 53.4285 6.3123 53.3037 6.63813C53.1265 7.09905 53.4323 7.65611 53.2475 8.11416C53.1559 8.34161 52.6597 8.21169 52.5763 8.44217C52.2949 9.22226 52.4602 10.1034 52.241 10.9023C52.1194 11.3433 51.7775 11.6525 51.7159 12.105C51.548 13.3333 51.8249 14.588 51.7159 15.8225C51.6919 16.0905 51.4024 16.2754 51.3239 16.5332C51.1396 17.1394 51.0234 17.7945 50.8108 18.3919C50.7192 18.65 50.3789 18.7838 50.3075 19.048C50.2025 19.4355 50.4656 19.8809 50.3075 20.2506C50.1084 20.7156 49.4077 20.9057 49.3007 21.3987C48.9987 22.7901 49.4768 24.2572 49.2546 25.6629C49.1552 26.2919 48.5879 26.7861 48.4715 27.4123C48.3215 28.219 48.5799 29.1728 48.3741 29.9674C48.1757 30.7348 47.6066 31.3999 47.3213 32.1401C47.2545 32.8665 46.364 33.5332 46.8495 34.0821C47.4352 34.1578 48.4071 34.2745 49.0868 33.9723C49.3996 33.8338 49.0373 33.1921 49.3105 32.9885C50.1457 32.365 51.1041 32.1401 52.0414 31.6765C52.5774 31.4111 53.2513 31.158 53.7295 30.802C53.9721 30.6208 53.9999 30.1907 54.2884 30.091C54.4623 30.0308 54.4983 30.4433 54.6799 30.4737C55.3047 30.5776 55.8467 30.3165 56.4601 30.4737C56.7054 30.5366 56.6978 30.859 56.7616 31.0988C56.8188 31.3136 56.9181 31.5449 56.796 31.7309C56.7223 31.8428 56.4557 31.7181 56.4039 31.8406C56.2976 32.0932 56.339 32.3949 56.4039 32.6603C56.4552 32.8671 56.6487 32.9955 56.6667 33.2071C56.7627 34.315 56.7943 35.4373 56.6667 36.5421C56.64 36.7739 56.5053 37.0169 56.2682 37.0409C54.6548 36.9684 53.1635 37.0841 51.548 37.0889C51.3817 37.0745 51.4771 36.7867 51.3239 36.7227C50.9073 36.5479 50.1561 36.5239 49.714 36.6231C49.1997 36.7382 49.1567 37.1517 48.6394 37.2524C47.707 37.4347 46.6295 37.2562 45.6894 37.3953C45.3571 37.4443 45.1033 37.7198 44.7774 37.7992C44.3251 37.9095 43.612 38.0273 43.379 37.633ZM18.4645 40.2006C17.767 40.4399 16.9533 40.2011 16.214 40.2166C15.9862 40.2214 15.6153 40.3961 15.3964 40.3333C15.1575 40.265 14.781 39.802 14.9304 39.6069C15.5138 38.8464 16.6641 38.7516 17.1968 37.957C17.5101 37.4896 17.2166 36.8602 17.3513 36.3172C17.3926 36.1504 17.6916 36.1658 17.78 36.0177C17.8519 35.8972 17.873 35.7048 17.78 35.5988C17.5676 35.3563 17.4331 35.8647 17.3493 35.1389C17.2743 34.4898 17.2585 33.8305 17.3201 33.182C17.3588 32.769 17.666 32.8564 17.7241 32.6384C17.8322 32.2329 17.6072 31.9323 17.7186 31.5273C17.7686 31.3455 18.1132 31.3914 18.2087 31.2278C18.2997 31.0722 18.3105 30.8387 18.2087 30.689C18 30.3831 17.4329 30.3879 17.3697 30.0255C17.2534 29.3588 17.3157 28.6431 17.3277 27.9816C17.3405 27.2772 17.291 26.5707 17.3512 25.8529C17.3622 25.7198 17.6707 25.7254 17.7186 25.6002C17.8117 25.3574 17.7528 25.0791 17.7186 24.8219C17.6913 24.6156 17.7561 24.1934 17.74 23.9858C17.7151 23.667 17.575 23.5486 17.7266 23.2653C17.8323 23.0679 18.177 23.1867 18.2087 22.966C18.3763 21.8 18.0186 20.6045 18.1474 19.4336C18.1693 19.2353 18.4888 19.2668 18.5425 19.0744C18.629 18.764 18.6557 18.4072 18.515 18.1165C18.4486 17.9792 18.1355 17.9787 18.1234 17.8273C17.9859 16.1164 18.2252 14.4989 18.0862 12.7881C18.0732 12.6278 17.6705 12.8525 17.6631 12.1572C17.6548 11.4285 17.5861 10.7492 17.5962 10.2136C17.604 9.80262 18.5112 9.79153 18.5016 9.38054C18.487 8.75425 18.588 8.04744 18.4403 7.40484C18.3929 7.19823 18.1171 7.23239 18.025 7.04049C17.9382 6.86026 18.02 6.6805 18.0994 6.49659C18.1947 6.27527 18.4537 6.13558 18.515 5.90296C18.6271 5.478 18.6158 5.01367 18.515 4.58584C18.4819 4.44584 18.2347 4.30905 18.166 4.182C18.0387 3.94688 18.0963 3.73935 17.9263 3.53151C17.8089 3.3881 17.4621 3.47621 17.3192 3.35699C16.9514 3.05003 16.7394 2.70873 16.4309 2.42916C16.141 2.16659 15.7501 1.96872 15.5268 1.58214C15.3832 1.3338 15.5504 0.904209 15.7824 0.730797C15.9606 0.597673 16.2397 0.627783 16.4376 0.730797C16.5985 0.814678 16.5954 1.14877 16.7759 1.17323C17.5654 1.28072 18.349 0.941041 19.1275 1.10827C19.4669 1.18123 19.485 1.60021 19.8013 1.74053C20.0129 1.83448 20.3944 1.65286 20.587 1.78002C20.8696 1.9667 21.1094 2.36388 21.3323 2.58568C21.6187 2.87085 21.8656 2.99779 22.0119 3.40159C22.1965 3.91143 22.1156 4.43455 22.1075 4.96486C22.1003 5.43277 22.1783 5.90664 22.1343 6.38195C22.1196 6.54183 21.8054 6.46658 21.7615 6.6214C21.6844 6.89319 21.7395 7.19743 21.884 7.44135C21.9891 7.61897 22.2737 7.52854 22.3421 7.72242C22.5018 8.17551 22.5221 8.73092 22.4033 9.19584C22.3592 9.36893 22.0174 9.25739 22.0065 9.43534C21.8689 11.6865 21.8346 13.9572 22.0677 16.2006C22.1073 16.582 22.7241 16.7178 22.7655 17.0987C22.9967 19.2221 22.7863 21.3714 22.6964 23.5048C22.6837 23.8082 22.5298 24.1896 22.4033 24.416C22.2618 24.6691 22.3498 24.922 22.3551 25.2013C22.362 25.5604 22.3181 25.9521 22.374 26.3187C22.406 26.528 22.8418 26.7273 22.8268 26.9386C22.7855 27.5206 22.8702 27.7957 22.9066 28.3696C22.9241 28.6458 22.4094 28.8184 22.2462 29.0444C22.1288 29.2069 22.0573 29.5219 22.153 29.6978C22.2433 29.8635 22.4053 29.7793 22.4567 29.9605C22.5292 30.2168 22.5353 30.4332 22.4033 30.6661C22.3182 30.8158 22.0043 30.7961 21.9746 30.965C21.8911 31.4388 22.1664 31.9264 22.0971 32.4023C22.0764 32.5446 21.7513 32.4993 21.7295 32.6416C21.6206 33.352 21.8528 34.0885 21.7295 34.7967C21.683 35.0643 21.2591 35.1847 21.2395 35.4555C21.2285 35.6068 21.5951 35.5013 21.6683 35.635C21.7839 35.8471 21.4937 36.2863 21.7295 36.3534C22.5133 36.5778 23.4831 36.5197 24.2729 36.3172C24.7203 36.2021 24.9096 35.5892 25.3702 35.5466C25.9251 35.4954 26.3345 35.8535 26.883 35.9495C27.6061 36.0768 28.3972 36.0997 29.1067 35.9132C29.5254 35.8029 29.7686 35.3686 30.1987 35.3126C32.0602 35.068 33.7877 35.2183 35.666 35.2087C37.4421 35.1991 39.7142 35.1117 41.0327 35.2524C41.7847 35.2769 40.9693 37.877 41.2404 39.2504C41.2994 39.5493 41.5608 39.7167 41.7178 39.9933C41.9683 40.4345 42.0654 40.6589 41.415 40.6562C40.1917 40.6504 38.9538 40.7426 37.6264 40.6877C37.3656 40.677 37.3782 40.1856 37.1364 40.0887C36.8713 39.9826 36.5571 40.2144 36.2788 40.1489C35.8617 40.0503 35.3916 39.6596 34.9659 39.6101C33.8307 39.4769 32.6867 39.7551 31.5543 39.6021C31.2973 39.5675 31.2618 39.0814 31.003 39.0628C28.3559 38.8736 25.8195 39.1454 23.1697 39.0042C22.6021 38.9738 22.5504 38.7803 22.1901 38.678C21.6804 38.5341 20.7688 38.4766 20.2887 38.6967C19.3938 39.1059 19.3966 39.8803 18.4644 40.2006H18.4645ZM50.3299 30.0847C49.7769 30.0687 49.7401 29.2005 49.784 28.6682C49.829 28.1235 50.5567 28.1521 50.8162 27.6683C51.0054 27.3161 50.7219 26.6969 50.9378 26.3595C51.1701 25.9962 51.7999 26.0097 52.0321 25.6464C52.1652 25.4387 51.9667 25.0405 51.9727 24.7957C51.9874 24.216 52.1205 23.789 52.0932 23.2099C52.079 22.9086 51.9509 22.3645 52.0092 22.0684C52.0894 21.6639 52.3358 21.762 52.458 21.3676C52.6101 20.8743 52.3571 20.313 52.5185 19.8225C52.5828 19.6285 53.103 19.7259 53.0659 19.5253C53.0207 19.2813 52.5654 19.4127 52.5201 19.1688C52.3822 18.4261 52.3746 17.5522 52.5796 16.8245C52.7077 16.3694 53.236 16.0211 53.3702 15.5673C53.5103 15.0918 53.2137 14.5525 53.3702 14.0816C53.4759 13.7619 54.0163 13.6944 54.0997 13.3685C54.296 12.5996 54.121 11.6566 54.3254 10.8899C54.4329 10.4875 54.6477 10.0315 54.911 9.77928C55.0692 9.62787 55.2115 9.51788 55.2856 9.27929C55.387 8.9525 55.1379 8.67767 55.1951 8.34071C55.2458 8.04259 55.4786 7.85123 55.6264 7.5861C55.8134 7.25132 55.8914 6.82716 56.0708 6.48886C56.3325 5.99426 56.6847 5.58049 56.8723 5.05428C57.0124 4.66194 56.7114 4.02201 56.8908 3.64497C57.1449 3.11109 57.8014 3.12425 58.0516 2.58856C58.2539 2.15583 57.9001 1.59024 58.1127 1.1623C58.267 0.85054 58.6154 0.712897 58.9693 0.699148C59.2288 0.689076 59.544 0.864608 59.6323 1.10282C59.8063 1.56961 59.6492 2.13051 59.8461 2.58856C60.1912 3.39407 60.7899 3.86885 61.1219 4.6798C61.2948 5.10262 61.1078 5.71063 61.2135 6.15418C61.3575 6.75718 61.4583 7.3653 61.6623 7.95253C61.9153 8.6838 62.2779 9.39312 62.4905 10.1358C62.6786 10.7935 62.7239 11.5072 62.8689 12.1766C62.9752 12.6651 63.1693 13.1136 63.3416 13.5826C63.4152 13.784 63.6644 13.7329 63.7238 13.9391C63.828 14.3035 63.515 14.6997 63.6023 15.0683C63.7059 15.5088 64.1911 15.9551 64.2707 16.4003C64.4005 17.1221 64.2653 17.8126 64.2833 18.5453C64.2996 19.2149 64.3721 19.8368 64.4621 20.4787C64.5177 20.8738 64.7413 21.4371 64.7516 21.7242C64.7892 22.7938 64.8378 23.8468 64.8498 24.9176C64.8683 26.4825 64.8683 28.1555 64.7882 29.7175C64.7789 29.8997 64.5564 29.993 64.491 30.1641C64.2429 30.8116 64.0352 31.1697 63.876 31.8438C63.792 32.1993 63.7893 32.5819 63.6328 32.9134C63.5368 33.117 63.1088 33.2838 63.0363 33.4964C62.8754 33.9697 63.0728 34.4455 63.0374 35.036C63.0074 35.5444 62.792 35.8365 62.5755 36.3092C62.4272 36.6321 62.1862 37.1357 62.0946 37.4725C61.9949 37.8381 62.1743 38.2389 62.0647 38.6018C62.0069 38.7915 61.7419 38.8832 61.6999 39.0772C61.5947 39.5616 61.7909 40.0902 61.6388 40.5624C61.5532 40.8299 61.4938 40.791 61.2326 40.9062C61.0472 40.9872 60.5609 41.0794 60.5331 40.8822C60.4153 40.0551 60.6536 39.4806 60.5194 38.6551C60.3624 37.6894 59.9491 37.1022 59.6999 36.1546C59.5789 35.6947 59.7953 34.8634 59.5718 34.4418C59.1694 33.6824 57.881 33.3754 57.9371 32.5222C57.9911 31.6967 58.496 31.1595 59.0102 30.4881C59.3613 30.0282 59.5898 29.2773 59.8084 28.7534C59.9693 28.3671 60.0631 27.9146 60.0701 27.5335C60.081 26.9648 59.9235 26.7173 59.4829 26.3636C58.5625 25.6244 57.0751 24.9484 55.9296 24.404C55.7616 24.3243 55.5648 24.6374 55.5648 24.82C55.5648 25.0027 55.7834 25.1446 55.8052 25.3257C55.869 25.8582 55.5392 26.4107 55.7753 26.8944C56.0244 27.4054 57.0075 27.5541 56.8619 28.1018C56.7638 28.4686 56.6716 28.5978 56.3532 28.7769C56.1602 28.8856 55.9459 28.8781 55.7202 28.8883C55.043 28.9186 54.3467 28.6841 53.6924 28.8195C52.982 28.9666 52.3462 29.2874 51.6897 29.6072C51.2552 29.8193 50.8108 30.0991 50.3299 30.0847ZM56.3189 21.7763C56.3129 21.2521 56.2998 20.7361 56.3009 20.2205C56.302 19.7653 56.3134 19.3101 56.3499 18.8494C56.3739 18.55 56.6542 18.3216 56.6902 18.0236C56.7507 17.5308 56.441 16.9395 56.5822 16.4656C56.6389 16.2733 57.1378 16.4661 57.2507 16.3044C57.2878 16.2515 57.3635 15.943 57.4895 15.6799C57.5653 15.5221 57.7229 15.3805 57.7229 15.3201C57.7229 15.232 57.7169 14.6064 57.7845 14.0643C57.8237 13.7497 57.8733 13.484 57.9224 13.4819C57.9709 13.4798 58.02 13.7406 58.1907 13.9576C58.387 14.2073 58.4535 14.455 58.6252 14.719C58.7267 14.8749 58.8357 15.0583 59.0031 15.1219C59.2163 15.2029 59.4715 15.0889 59.6836 15.1726C59.8422 15.2351 59.8809 15.4784 60.0238 15.5754C60.1203 15.641 60.3417 15.5161 60.364 15.6358C60.4649 16.1754 60.3777 16.8975 60.4654 17.4395C60.4867 17.5695 60.7806 17.509 60.7871 17.6409C60.8319 18.5849 60.8542 19.5304 60.8509 20.4759C60.8482 21.3102 60.8259 22.1447 60.7817 22.9784C60.7697 23.2159 60.1274 23.2326 59.948 23.0992C59.6012 22.8409 59.3815 22.5412 58.9279 22.4345C58.7387 22.3902 58.7479 22.0973 58.5685 22.0389C58.1705 21.9093 57.6683 21.877 57.2523 21.877C56.9808 21.877 56.5888 21.9707 56.3189 21.9374C56.2692 21.9313 56.3194 21.8297 56.3189 21.7763ZM69.2314 5.50605C69.2324 6.04915 69.2919 6.6376 69.2935 7.20628C69.2962 7.93814 69.2417 8.59379 69.2445 9.33151C69.2472 10.1171 69.3072 10.9848 69.3072 11.7531C69.3072 12.3776 69.1905 13.5779 69.2401 14.0966C69.3033 14.7635 69.341 14.8791 70.2739 14.8791C70.7253 14.8791 71.3371 14.4265 71.788 13.9691C72.0966 13.656 72.0503 13.1155 72.1686 12.8817C72.3431 12.5381 72.6413 12.2237 72.7035 11.8248C72.7831 11.3116 72.5912 10.888 72.9412 10.5598C73.0792 10.43 73.2095 8.95656 73.2095 8.63233C73.2095 8.17018 72.7128 7.48484 72.1419 6.87166C71.7515 6.45209 71.2831 6.07552 71.0836 5.78812C70.7177 5.26191 70.444 5.03105 70.0105 4.9364C69.2188 4.76358 69.2308 4.83462 69.2314 5.50605ZM65.0515 34.4258C64.9038 34.9961 65.353 35.2289 65.8846 35.5647C66.4152 35.9004 67.0291 36.3395 67.6071 36.8027C68.5852 37.586 69.251 39.0159 69.8873 40.4239C70.215 40.0833 69.9838 38.4963 70.1675 37.5456C70.2068 37.342 70.4314 37.1949 70.4527 36.9886C70.528 36.2495 70.5465 35.4975 70.4527 34.7605C70.4173 34.4855 70.1452 34.2846 70.0727 34.0176C70.0154 33.8082 70.0291 33.5796 70.0727 33.3675C70.1256 33.1085 70.3333 32.8878 70.3573 32.6246C70.4293 31.854 70.4762 31.0684 70.3573 30.3037C70.3126 30.0148 69.86 29.8518 69.8824 29.5608C69.9015 29.3199 70.4342 29.3375 70.4527 29.0966C70.5045 28.4064 70.2597 27.7403 70.1725 27.0538C69.9751 25.5106 69.86 23.9583 69.697 22.4114C69.6387 21.8539 69.4108 21.2926 69.5073 20.7401C69.8044 19.9866 70.0759 19.2125 70.3622 18.6046C70.5018 18.4255 70.6861 18.7755 70.8278 18.9529C71.2908 19.5307 71.9058 20.2457 72.0388 20.9678C72.2019 21.8531 71.7111 22.6364 71.8158 23.5303C71.8464 23.7911 72.2575 23.7443 72.3523 23.9898C72.806 25.163 73.1746 26.3759 73.3976 27.6109C73.6517 29.0183 73.7335 30.4534 73.7776 31.8822C73.7967 32.5036 73.7694 33.1431 73.5873 33.7389C73.3278 34.59 72.7869 35.2684 72.5187 36.0907C72.2379 36.9508 72.1473 37.2077 73.0786 37.2072C73.4472 37.2066 73.8774 37.221 74.162 37.3601C74.9243 37.7326 75.2389 38.5917 75.9624 39.0313C76.1189 39.1262 76.3234 39.2578 76.5387 39.3756C77.5649 39.9373 77.6777 39.5494 77.8915 38.6711C78.1734 37.5099 78.2448 36.4627 78.4275 35.3174C78.5207 34.7365 78.5011 34.1407 78.5273 33.5534C78.5643 32.7162 78.6287 31.8833 78.5845 31.046C78.5643 30.6554 78.5665 30.228 78.3043 29.9322C78.1074 29.71 77.5267 29.937 77.4493 29.6535C77.343 29.265 77.9166 28.9415 77.9242 28.5392C77.7672 27.4537 77.6232 26.4823 77.6047 25.4123C77.5834 24.151 77.307 24.7859 76.879 24.2915C76.6205 23.9927 76.5398 23.7293 76.4995 23.3399C76.3801 22.2002 76.5491 20.9391 76.3708 19.807C76.2912 19.3007 76.0491 18.8014 75.7061 18.4143C75.5818 18.2739 75.3539 18.4827 75.2689 18.3167C75.1265 18.0385 75.5638 17.8481 75.397 17.5833C75.0093 16.968 74.198 16.4983 73.583 16.0977C73.3987 15.9776 73.0743 16.2509 72.9178 16.0977C72.7613 15.9445 72.7651 15.4743 72.9178 15.3177C74.0132 15.1627 74.5769 14.6586 75.1118 14.0551C75.8376 13.2369 76.1925 12.3248 76.5562 11.3022C76.7241 10.8308 76.5093 10.2799 76.5655 9.78402C76.6696 8.86639 77.162 8.03306 76.9978 7.12384C76.7596 5.80161 76.0927 4.61671 75.3261 3.50274C74.9003 2.88434 74.2389 2.33623 73.5497 2.01717C72.9745 1.75092 72.493 1.97369 71.8823 1.79905C71.1752 1.59686 70.6087 1.21022 69.8873 1.06569C69.3257 0.953141 68.7363 1.18219 68.1774 1.05626C67.8285 0.977602 67.7717 0.594204 67.4173 0.541018C67.1731 0.504246 66.9233 0.850224 66.6769 0.870581C64.973 1.01165 63.5744 0.689069 61.8787 0.907727C61.6257 0.940395 61.6977 1.21618 61.9076 1.35805C62.2211 1.5701 62.6977 1.46537 63.0477 1.61337C63.6758 1.8794 64.159 2.23704 64.6246 2.72755C65.0101 3.13321 65.1671 3.58443 65.5172 4.21312C65.6611 4.47084 66.0749 3.97596 66.3726 3.93456C66.7483 3.88212 67.0095 3.87226 67.2467 4.16211C67.4599 4.42213 67.0188 4.76864 66.7674 4.99295C66.2587 5.44615 65.9125 5.68617 65.4626 5.98706C65.1551 6.19303 64.6104 6.37795 64.382 6.78031C63.8749 7.67295 64.4763 8.68811 64.6715 9.69118C64.7429 10.057 64.8247 10.4147 64.9097 10.7775C65.1856 11.9574 65.093 12.9393 65.2609 14.1385C65.3154 14.5261 65.5968 14.8638 65.6409 15.2527C65.6933 15.7149 65.6082 16.0554 65.6791 16.5153C65.7085 16.7111 65.8727 16.9187 65.9261 17.1096C66.1627 17.9587 66.371 19.025 66.401 19.9045C66.4981 22.7813 66.3236 25.5997 66.4719 28.4747C66.4855 28.7364 66.8873 28.8398 66.9424 29.0966C67.028 29.4947 66.7565 29.952 66.6196 30.3362C66.0575 31.9094 65.3983 33.0866 65.0515 34.4258Z" fill="#1B89BF"/>
</svg>
