<svg width="162" height="67" viewBox="0 0 162 67" fill="none" xmlns="http://www.w3.org/2000/svg">
<g clip-path="url(#clip0)">
<path d="M80.8247 0.176312C81.8967 -0.193668 83.0677 0.115195 84.0501 0.597808C84.7365 1.03804 85.4229 1.48295 86.1916 1.77097C86.2504 1.88103 86.3727 2.0988 86.4314 2.20652C86.4009 2.27911 86.3421 2.42897 86.3115 2.50156C86.8593 3.74264 87.2096 5.21319 86.6783 6.51725C86.3162 6.95748 85.6862 7.02562 85.1761 7.19609C85.1737 7.82599 85.2748 8.44911 85.3289 9.07432C86.4197 9.24995 87.3431 8.4936 88.4221 8.56853C88.5679 7.96673 88.683 7.35509 88.8763 6.76523C89.0996 7.15628 89.1088 7.60611 89.1114 8.04634C89.3935 8.12596 89.6803 8.19855 89.9689 8.26856C89.9718 8.37651 89.9739 8.59195 89.9739 8.69966C94.7037 8.72776 99.431 8.67835 104.161 8.72542C104.149 8.88652 104.126 9.20991 104.117 9.37171C104.239 9.37171 104.488 9.37405 104.612 9.37405C104.608 8.51725 104.612 7.65763 104.61 6.80082C104.73 6.7959 104.965 6.78888 105.083 6.78654C105.085 7.46093 105.087 8.13533 105.095 8.80995C105.198 8.9364 105.405 9.18907 105.509 9.31551C105.586 9.22396 105.741 9.04412 105.818 8.95256C106.178 9.28765 105.974 9.74661 105.958 10.1583C107.281 10.144 108.618 10.233 109.937 10.1253C110.036 10.0527 110.234 9.90982 110.332 9.83747C110.514 9.90748 110.697 9.97796 110.878 10.0506C111.473 10.036 112.07 10.0342 112.667 10.0318C112.655 10.3386 112.645 10.6451 112.633 10.9521C111.865 10.9401 111.094 10.924 110.337 11.0549C109.848 10.636 109.192 10.769 108.602 10.753C107.694 10.7952 106.758 10.636 105.879 10.9238C105.357 11.0689 104.784 11.034 104.323 10.7388C104.212 11.0127 104.382 11.6262 103.918 11.6026C102.094 11.6262 100.272 11.5864 98.4504 11.6145C98.2013 11.7457 97.9497 11.8698 97.701 11.9913C97.4377 12.7734 96.6831 13.2954 96.0409 13.7731C95.9609 14.9743 96.4381 16.096 96.6239 17.2619C96.2642 17.3647 95.9022 17.4705 95.5472 17.5876C95.0371 18.7865 95.3497 20.4231 94.1696 21.2595C93.2645 21.7838 92.6656 22.9242 91.445 22.7441C92.0656 23.2593 91.2758 23.0977 91.358 22.6856C89.1506 22.4912 87.2911 21.201 85.3729 20.2177C85.2835 20.7561 85.1427 21.2855 84.9967 21.8124C85.7255 21.9506 86.3273 22.4844 86.4566 23.2291C86.6893 24.8521 86.2239 26.4634 86.2309 28.0906C86.2826 29.046 85.8712 29.9215 85.3588 30.7013C84.9098 31.2071 84.2022 30.687 83.6638 30.6123C83.5413 30.8488 83.4217 31.0855 83.3041 31.3242C83.457 31.9608 83.5228 32.6235 83.7367 33.2464C84.938 34.5694 86.0311 36.0028 86.8703 37.5834C87.7342 39.3734 88.5041 41.2069 89.1767 43.0766C89.2423 43.4398 89.5855 43.5702 89.8869 43.7018C89.9269 44.0765 89.9668 44.4507 90.0044 44.8303C90.122 45.0012 90.2419 45.1719 90.3641 45.3452C90.437 47.6543 90.1525 49.9536 89.7924 52.232C89.5695 53.2602 90.1732 54.2645 89.9287 55.2995C89.9569 55.8295 89.5907 56.2296 89.4186 56.698C89.3857 57.7915 89.3316 58.8989 89.452 59.9906C89.5362 60.7914 90.216 61.3063 90.6768 61.9037C91.1798 62.4355 91.6006 63.1494 92.3623 63.3389C93.0793 63.552 93.7634 63.8611 94.3953 64.2664C94.5881 64.7415 94.5528 65.2454 94.4611 65.7391C93.0835 65.992 91.6777 65.8657 90.2861 65.887C89.2136 65.943 88.2573 65.3693 87.2154 65.2497C86.2069 65.2244 84.9775 65.7229 84.2022 64.8237C84.5308 63.5761 84.5571 62.2362 85.1585 61.0722C85.3512 59.754 84.985 58.4167 85.0621 57.0867C84.9474 56.9907 84.7165 56.7987 84.6013 56.7022C84.6841 55.8337 84.2536 55.0607 84.11 54.2296C84.0164 53.016 83.9055 51.8035 83.7644 50.5952C83.654 50.0074 83.9596 49.4691 84.3756 49.078C84.4133 48.399 84.5054 47.7267 84.5708 47.0525C84.4697 46.6144 84.1194 46.2891 83.8937 45.9145C83.1391 46.2311 82.1212 46.081 81.6722 45.3452C80.6075 43.7672 79.5447 42.1889 78.468 40.6198C78.0449 40.5919 77.5983 40.6362 77.2033 40.4676C76.7477 40.0018 76.5098 39.3813 76.2188 38.8146C75.8025 39.2806 75.8328 39.9946 75.3396 40.4186C74.2958 41.4164 74.0184 42.8823 73.473 44.1606C73.0551 44.9893 73.2901 45.9892 72.8242 46.7973C72.575 47.2326 71.9497 47.3192 71.7852 47.8161C71.5689 48.3519 71.315 48.9071 70.8096 49.233C70.2618 49.5908 70.1163 50.2704 69.8721 50.8319C69.6487 51.3497 69.9802 51.8927 69.9026 52.4245C69.5547 54.113 68.4757 55.5248 68.022 57.1782C67.8151 57.9229 67.5187 58.7612 66.6489 58.9202C65.6592 60.6811 65.114 62.8356 65.6735 64.8183C66.0167 65.4412 65.9979 66.1414 65.8921 66.8275C64.3197 66.9495 62.7068 67.16 61.1625 66.7223C60.8005 66.0079 60.8522 65.1672 60.9275 64.3952C61.4044 62.3645 62.037 60.3697 62.4247 58.3184C61.9404 57.8899 62.0535 57.2344 62.0627 56.6605C62.0464 55.5904 62.7773 54.7333 63.2851 53.8552C63.4757 52.9537 63.3864 51.9849 63.854 51.1576C64.4043 50.1226 64.8695 49.0036 65.7184 48.1674C65.8804 47.4297 66.4262 46.8727 66.6468 46.1624C66.8818 45.5349 66.4704 44.898 66.5532 44.2566C66.7551 42.3102 67.1103 40.3833 67.4183 38.4514C66.8355 37.9667 67.0233 37.1965 66.8376 36.543C66.9293 36.2854 67.0445 36.0398 67.1832 35.8007C67.0375 35.6672 66.8943 35.5314 66.7483 35.3981C66.8894 34.7113 66.8494 33.482 67.9073 33.7051C67.9731 31.4314 67.1809 29.2303 67.4465 26.9539C67.5876 27.1176 67.726 27.2841 67.8673 27.4504L67.7921 26.68C68.234 26.4458 68.7042 26.2655 69.1979 26.1742C68.3939 26.069 67.6111 25.8653 66.8231 25.6824C66.6326 25.1834 66.7389 24.6521 66.809 24.1416C67.1146 22.4182 67.2274 20.6713 67.2909 18.9244C68.1818 18.6158 69.1645 18.8778 70.0343 18.4655C69.7644 16.2807 69.6962 14.0002 70.4762 11.9042C71.1039 10.1196 72.303 8.39853 74.1741 7.7712C75.058 7.56069 76.1699 7.32395 76.7947 8.17865C76.9664 8.02176 77.138 7.86018 77.3096 7.70329C75.8829 4.88067 77.5872 0.75704 80.8247 0.176312V0.176312ZM92.2424 12.4184C91.8663 12.6479 91.4972 12.9104 91.8926 13.3272C91.6998 13.4417 91.5066 13.552 91.3115 13.6572C91.0059 13.8913 90.3194 14.0246 90.3994 14.498C90.7427 15.0472 91.0385 15.6245 91.2835 16.2236C92.0332 15.6103 92.6303 14.7856 93.0346 13.9126C93.1193 13.826 93.2911 13.6527 93.3755 13.5682C93.3379 13.1678 93.2486 12.7765 93.0911 12.4067C92.809 12.4116 92.5245 12.4161 92.2424 12.4184V12.4184Z" fill="white"/>
<path d="M99.1399 33.3808C100.216 32.0276 101.956 31.278 103.681 31.3061C108.931 31.311 114.182 31.3038 119.432 31.3085C121.992 31.3623 124.489 33.3553 124.785 35.9454C117.518 35.9213 110.254 35.9665 102.99 35.9213C102.983 40.764 102.974 45.6089 102.99 50.454C108.566 50.4449 114.142 50.4352 119.719 50.4587C119.697 48.7235 119.725 46.9883 119.702 45.2534C116.945 45.2691 114.187 45.2745 111.43 45.2534C109.218 45.1689 107.572 43.2654 107.074 41.2375C113.003 41.2164 118.929 41.2141 124.858 41.2398C124.832 44.2067 124.872 47.1761 124.836 50.143C124.766 52.6415 122.608 54.8406 120.135 55.0911C114.415 55.0911 108.693 55.0888 102.974 55.0888C101.265 55.0766 99.7532 54.0018 98.7894 52.6603C98.1312 51.7117 97.9828 50.5341 97.8891 49.4169C97.8796 45.4361 97.8938 41.4529 97.8841 37.4721C97.9057 36.0292 98.162 34.505 99.1399 33.3808V33.3808ZM133.821 31.4698C134.412 31.3106 135.027 31.2991 135.637 31.3061C140.489 31.3206 145.343 31.29 150.195 31.3178C152.946 31.4349 155.362 33.8004 155.468 36.5491C155.473 40.9914 155.473 45.4356 155.468 49.8805C155.419 52.6036 152.997 55.142 150.221 55.0954C144.885 55.0719 139.549 55.1117 134.212 55.0766C131.551 54.7816 129.508 52.2505 129.489 49.63C129.452 45.5787 129.494 41.5229 129.468 37.4721C129.447 36.2779 129.663 35.0509 130.298 34.0206C131.043 32.7254 132.378 31.8189 133.821 31.4698V31.4698ZM134.658 35.7929C134.668 40.79 134.637 45.7892 134.672 50.7863C139.884 50.8005 145.099 50.7839 150.31 50.7928C150.326 45.7915 150.313 40.7895 150.317 35.7852C145.098 35.7833 139.877 35.7742 134.658 35.7929V35.7929ZM0.0082319 36.9825C0.118955 34.2732 2.39666 31.7276 5.16827 31.6222C10.3469 31.6173 15.5281 31.6173 20.7071 31.6246C23.5046 31.5967 25.8347 34.114 26.0458 36.8139C25.6721 36.8446 25.2983 36.8675 24.9245 36.8724C18.7583 36.8657 12.5921 36.8748 6.42807 36.8675C6.42548 41.2324 6.40244 45.5969 6.43982 49.962C12.9847 49.9524 19.527 49.9477 26.0717 49.9646C25.886 52.7624 23.5208 55.2452 20.6698 55.355C15.9775 55.4208 11.2853 55.3574 6.59286 55.3857C5.42451 55.4255 4.22089 55.2801 3.16796 54.7486C1.35313 53.8238 0.069353 51.9386 0.00635125 49.892C0.00117946 45.588 -0.00587298 41.2862 0.0082319 36.9825V36.9825ZM31.0296 34.861C31.8923 32.9851 33.867 31.592 35.9689 31.6176C41.1406 31.6225 46.3148 31.6176 51.4892 31.6199C54.19 31.6363 56.569 33.9918 56.7597 36.65C49.9374 36.746 43.1106 36.6638 36.2865 36.6898C36.2557 38.0573 36.27 39.4248 36.2676 40.7945C41.3407 40.8106 46.4161 40.7991 51.4892 40.7991C52.9934 40.8577 54.5734 41.338 55.5982 42.4968C56.7498 43.5227 57.2367 45.0846 57.2743 46.5879C57.2999 48.0889 57.2999 49.5972 57.0554 51.0837C56.4959 53.4911 54.1851 55.2848 51.7193 55.3621C46.7875 55.4087 41.8527 55.3668 36.9209 55.3855C35.7575 55.4091 34.5539 55.2426 33.5217 54.6783C31.8855 53.8281 30.7101 52.1182 30.5481 50.2828C37.4924 50.3161 44.4391 50.3039 51.3834 50.2877C51.3998 48.8308 51.3904 47.3745 51.3904 45.9182C46.2516 45.8831 41.1103 45.9133 35.9689 45.9037C33.0141 45.9273 30.4 43.2225 30.4795 40.2887C30.5829 38.4809 30.1647 36.5399 31.0296 34.861V34.861ZM157.073 32.1049C157.727 32.0885 158.387 32.0627 159.039 32.1611C158.735 32.2383 158.427 32.2781 158.117 32.2828C158.077 32.9879 158.072 33.6927 158.082 34.3971C158.014 34.3971 157.88 34.3971 157.814 34.3994C157.819 33.6759 157.826 32.9523 157.816 32.2311C157.633 32.2456 157.268 32.2781 157.087 32.292L157.073 32.1049V32.1049ZM159.405 32.0786C159.544 32.0859 159.826 32.0999 159.967 32.107C160.167 32.7413 160.402 33.3642 160.694 33.966C160.967 33.3595 161.145 32.713 161.446 32.1234C161.578 32.1046 161.841 32.0648 161.972 32.0461C161.899 32.9078 162.198 33.8609 161.731 34.6453C161.646 33.8819 161.681 33.1136 161.632 32.3479C161.274 33.0624 161.105 33.8653 160.637 34.5259C160.28 33.847 160.127 33.0738 159.699 32.4329C159.671 33.1167 159.685 33.8028 159.676 34.4884L159.424 34.4601C159.424 33.6667 159.412 32.8727 159.405 32.0786V32.0786Z" fill="white"/>
</g>
<defs>
<clipPath id="clip0">
<rect width="162" height="67" fill="white"/>
</clipPath>
</defs>
</svg>
