<svg width="152" height="42" viewBox="0 0 152 42" fill="none" xmlns="http://www.w3.org/2000/svg">
<path d="M0 21C0 32.5524 0.0288425 42 0.0672992 42C0.124984 42 7.96053 40.5619 8.92195 40.3714L9.42189 40.2762V32.5619V24.8571H12.4023H15.3827V23.4476C15.3827 22.6762 15.4115 20.6667 15.45 18.9714L15.5077 15.9048H12.4696H9.42189V12.5238V9.14286H12.9311C14.8635 9.14286 16.4402 9.12381 16.4402 9.09524C16.4402 8.99047 17.2094 0.857141 17.2574 0.447617L17.3151 -1.60374e-06H8.65275H0V21Z" fill="white"/>
<path d="M143.809 1.22858L136.137 1.85715V20.8286V39.8L136.454 39.8476C136.733 39.8952 151.587 40.9619 151.885 40.9524C151.971 40.9524 152 39.9429 152 36.2381V31.5238H148.731H145.462V28.0952V24.6667H148.25H151.039V20.5714V16.4762H148.154H145.27V13.7619V11.0476L145.491 11.0095C145.607 10.981 146.587 10.9429 147.674 10.9048C148.76 10.8762 150.173 10.8286 150.827 10.7905L152 10.7333V5.65715V0.571439L151.74 0.580962C151.587 0.590486 148.02 0.8762 143.809 1.22858Z" fill="white"/>
<path d="M94.5554 2.54285C94.6515 3.49523 95.7475 17.8476 95.7283 17.8667C95.7187 17.8857 94.3054 14.4476 92.5845 10.2286C90.8731 6.00952 89.431 2.51428 89.3926 2.44761C89.3349 2.34285 86.6814 2.82857 82.3261 3.74285L81.9127 3.82857V20.2V36.5714H86.191H90.4693L90.4213 35.8857C90.3251 34.6095 89.9694 24.0571 90.0079 23.6381C90.0367 23.2667 90.3251 23.9143 93.0556 30.4476C94.7092 34.419 96.1129 37.7048 96.1513 37.7619C96.209 37.819 97.5454 37.7333 99.8143 37.5428C101.785 37.3714 103.4 37.219 103.4 37.2095C103.41 37.2 103.362 30.3333 103.295 21.9524C103.227 13.5714 103.17 5.65714 103.17 4.35238L103.16 2H98.8337H94.4977L94.5554 2.54285Z" fill="white"/>
<path d="M26.8716 2.58093C21.1223 2.96188 17.9593 6.85712 16.9594 14.7619C16.7575 16.4 16.671 21.9619 16.8152 23.9047C17.2959 30.2095 19.0168 34.3047 22.0741 36.3905C23.7181 37.5047 26.189 38.1047 28.631 37.9619C31.4095 37.8095 33.3035 37.0286 35.0052 35.3428C36.3992 33.9619 37.1587 32.6666 37.8894 30.4571C38.9085 27.3714 39.37 22.7619 39.1393 17.9619C38.8797 12.5905 38.0625 9.2476 36.38 6.68569C34.7744 4.2476 32.2363 2.79045 29.2751 2.6095C28.804 2.58093 28.3041 2.55236 28.1695 2.53331C28.0349 2.52379 27.458 2.54284 26.8716 2.58093ZM28.2272 10.0666C28.929 10.819 29.2271 13.819 29.2271 20.2381C29.2271 28.1428 28.7271 31.4286 27.6311 30.7238C27.16 30.4095 26.8043 28.8762 26.6312 26.3333C26.5062 24.4762 26.5062 15.9714 26.6312 14.1905C26.8139 11.6762 27.1408 10.2857 27.6311 9.95236C27.9003 9.76188 27.9484 9.77141 28.2272 10.0666Z" fill="white"/>
<path d="M40.3795 19.8952V37.2381H44.7924H49.1957L49.2534 36.0286C49.2919 35.3524 49.3688 33.1619 49.4264 31.1428C49.4841 29.1238 49.561 27.3524 49.5995 27.2095C49.6476 27.0095 50.061 28.2952 51.3301 32.6381C52.253 35.7714 53.0318 38.3714 53.0702 38.4095C53.1471 38.4952 62.1652 37.7905 62.2614 37.6952C62.2902 37.6571 61.2903 34.5428 60.0405 30.7524L57.7715 23.8762L58.2523 23.4571C59.8482 22.0762 61.1653 19.4095 61.5403 16.7714C61.7037 15.619 61.598 12.7619 61.348 11.7047C60.3866 7.56188 57.8388 4.34284 54.5893 3.14284C53.176 2.62855 53.2913 2.63807 46.6095 2.59998L40.3795 2.56188V19.8952ZM50.2917 10.7714C50.9743 11.1047 51.532 11.9619 51.83 13.1428C52.0319 13.9333 52.003 16.4381 51.7819 17.2381C51.3685 18.7428 50.6378 19.619 49.5418 19.9524L49.3207 20.0095V15.2476V10.4762L49.638 10.5428C49.8014 10.5714 50.0994 10.6762 50.2917 10.7714Z" fill="white"/>
<path d="M61.8191 7.09523V11.5238H64.2707H66.7223V24.2857V37.0476H71.3371H75.9519V25.0476V13.0476H78.4516H80.9513V8.61903V4.19046L80.7398 4.15237C80.5379 4.10475 62.2037 2.65713 61.9441 2.66665C61.8479 2.66665 61.8191 3.61903 61.8191 7.09523Z" fill="white"/>
<path d="M105.179 20.9048V38.1905H109.938H114.697V20.9048V3.61906H109.938H105.179V20.9048Z" fill="white"/>
<path d="M125.561 4.81906C120.35 5.09525 116.014 5.32382 115.928 5.32382C115.764 5.33334 115.755 5.60953 115.755 9.80953V14.2857H118.206H120.658V26.8095V39.3333H125.321H129.984V26.2857V13.2381H132.579H135.175V8.76191C135.175 6.29525 135.146 4.29525 135.108 4.29525C135.06 4.30477 130.772 4.53334 125.561 4.81906Z" fill="white"/>
</svg>
