<svg width="141" height="54" viewBox="0 0 141 54" fill="none" xmlns="http://www.w3.org/2000/svg">
<g clip-path="url(#clip0)">
<path d="M133.198 38.7947C130.801 38.1827 128.733 37.6649 128.733 35.6877C128.733 34.1342 129.908 33.1457 131.788 33.1457C133.527 33.0515 135.125 34.2284 135.454 35.9702L140.154 33.7106C138.885 30.6036 135.83 28.7206 131.929 28.7206C126.853 28.7206 123.328 31.8276 123.328 36.2526C123.328 41.6663 127.229 42.7019 130.707 43.5964C133.151 44.2083 135.219 44.7733 135.219 46.7975C135.219 48.4922 133.856 49.5749 131.788 49.5749C129.72 49.5749 127.981 48.4451 127.511 46.7504L122.811 49.01C124.127 52.117 127.464 54 131.6 54C137.099 54 140.624 50.9401 140.624 46.1384C140.624 40.6777 136.488 39.6421 133.198 38.7947V38.7947Z" fill="#C79B3B"/>
<path d="M141 6.83038V9.32537H137.005V11.6791H140.483L139.825 14.08H137.005V17.7989H134.279V6.83038H141Z" fill="#C79B3B"/>
<path d="M127.417 9.37244C129.109 9.37244 130.472 10.7376 130.472 12.4323C130.472 14.127 129.109 15.4922 127.417 15.4922C125.725 15.4922 124.362 14.127 124.362 12.4323C124.362 10.7376 125.725 9.37244 127.417 9.37244ZM127.417 18.1284C130.566 18.1284 133.104 15.5393 133.104 12.3853C133.104 9.23121 130.519 6.68915 127.37 6.68915C124.221 6.68915 121.683 9.27829 121.683 12.3853C121.683 15.5864 124.268 18.1755 127.417 18.1284Z" fill="#C79B3B"/>
<path d="M77.315 53.2939H82.391V37.2412L93.906 53.2939H99.217V28.8618H94.094V45.1498L82.72 28.8618H76.14L77.315 31.2627V53.2939Z" fill="#C79B3B"/>
<path d="M116.419 43.973C115.714 45.7147 114.304 47.0799 112.612 47.8331C111.719 48.2097 110.779 48.398 109.792 48.398H106.878V33.8047H109.792C110.779 33.8047 111.719 33.993 112.612 34.3696C114.351 35.0757 115.714 36.488 116.419 38.2298C117.171 40.1128 117.171 42.137 116.419 43.973V43.973ZM114.727 29.8504C113.176 29.2384 111.531 28.9089 109.886 28.8147H101.567V53.2468H109.886C113.176 53.2468 116.325 52.0228 118.722 49.7632C119.85 48.6805 120.79 47.3624 121.401 45.903C123.422 41.2897 122.341 35.9231 118.722 32.4395C117.547 31.3568 116.231 30.4624 114.727 29.8504V29.8504Z" fill="#C79B3B"/>
<path d="M32.524 53.2939H18.001V28.8618H32.524V33.6164H23.312V38.5593H31.725L30.456 43.1727H23.312V48.5393L32.524 48.5863V53.2939Z" fill="#C79B3B"/>
<path d="M65.706 33.6164H74.918V28.8618H60.442V53.2939H74.918V48.5863L65.706 48.5393V43.1727H72.85L74.119 38.5593H65.706V33.6164Z" fill="#C79B3B"/>
<path d="M84.13 19.3053C83.66 17.9401 83.425 16.5279 83.472 15.1156L83.566 0.0515461H88.83L88.783 14.8802C88.783 16.5279 89.159 17.846 89.911 18.7875C91.697 20.6705 94.705 20.7176 96.538 18.8816L96.632 18.7875C97.431 17.846 97.807 16.5279 97.807 14.8802L97.8541 0.00447083H103.212L103.118 15.2098C103.118 16.622 102.93 18.0343 102.46 19.3995C102.037 20.5763 101.332 21.6591 100.486 22.6006C99.5931 23.495 98.5591 24.2011 97.3841 24.6248C94.7051 25.5663 91.7911 25.5663 89.1121 24.5777C87.9371 24.107 86.9031 23.4479 86.0571 22.5064C85.211 21.612 84.5531 20.5293 84.1301 19.3053L84.13 19.3053Z" fill="#C79B3B"/>
<path d="M57.716 17.4223C57.058 15.8688 56.729 14.1741 56.729 12.5265C56.729 10.8318 57.105 9.18414 57.763 7.63066C58.421 6.12425 59.361 4.75907 60.536 3.62926C61.711 2.45238 63.121 1.55795 64.625 0.945975C66.176 0.286922 67.868 -0.0426046 69.607 0.00447064C71.91 -0.0426305 74.213 0.569373 76.234 1.69918C78.114 2.78191 79.665 4.38247 80.652 6.35963L75.858 8.61924C75.294 7.48943 74.401 6.54793 73.32 5.88888C72.192 5.22982 70.876 4.94737 69.56 4.94737C68.573 4.94737 67.539 5.13567 66.646 5.51227C65.753 5.88888 64.954 6.45378 64.296 7.15991C63.591 7.86604 63.074 8.71339 62.698 9.60782C61.899 11.5379 61.899 13.6563 62.651 15.5864C63.356 17.4223 64.813 18.9287 66.599 19.729C67.539 20.1527 68.526 20.388 69.56 20.341C71.064 20.3881 72.568 19.9173 73.79 19.0699C74.918 18.2697 75.717 17.0457 76.046 15.6805H67.351L69.513 11.2555H81.639C81.686 12.197 81.639 14.2212 81.592 14.6449C81.451 15.7747 81.169 16.9045 80.746 17.9872C79.571 20.9059 77.268 23.1655 74.354 24.3424C69.56 26.2725 64.108 25.1426 60.442 21.4708C59.267 20.2939 58.374 18.9287 57.716 17.4223H57.716Z" fill="#C79B3B"/>
<path d="M1.222 22.0366V2.59455L0 0.0524902H6.486V19.777H16.215L14.852 24.5787H0L1.222 22.0366Z" fill="#C79B3B"/>
<path d="M1.222 50.7518V31.3097L0 28.7677H6.486V48.4922H16.215L14.852 53.2939H0L1.222 50.7518Z" fill="#C79B3B"/>
<path d="M32.524 24.578H18.001V0.14592H32.524V4.90052H23.312V9.84342H31.725L30.456 14.4568H23.312V19.7763L32.524 19.8234V24.578Z" fill="#C79B3B"/>
<path d="M120.038 24.578H105.562V0.14592H120.085V4.90052H110.873V9.84342H119.286L118.017 14.4568H110.873V19.7763L120.085 19.8234V24.578L120.038 24.578Z" fill="#C79B3B"/>
<path d="M46.436 6.92453L49.491 15.1627H43.24L46.436 6.92453ZM39.621 24.5777L41.454 19.8231H51.23L53.11 24.5777H58.609L48.786 0.0515442H41.266L42.864 3.25266L34.216 24.5777H39.621Z" fill="#C79B3B"/>
<path d="M43.522 53.6705C44.415 53.8588 45.308 53.9529 46.248 53.9529C47.893 54 49.538 53.6705 51.089 53.0585C54.003 51.8816 56.306 49.622 57.481 46.7033C57.904 45.6206 58.186 44.4908 58.327 43.361C58.421 42.2312 58.421 41.1014 58.374 39.9245H46.248V39.9716L44.086 44.3966H52.734C52.405 45.7618 51.606 46.9858 50.478 47.7861C49.256 48.6805 47.799 49.1042 46.295 49.0571C45.825 49.0571 45.402 49.01 44.932 48.9159L43.851 48.6334C43.663 48.5863 43.522 48.4922 43.334 48.4451C41.548 47.6448 40.091 46.1855 39.386 44.3025C38.634 42.3724 38.634 40.2069 39.433 38.2769C39.809 37.3824 40.373 36.5351 41.031 35.829C41.689 35.1228 42.535 34.605 43.428 34.2284C44.368 33.8518 45.355 33.6635 46.342 33.6635C47.658 33.6164 48.974 33.9459 50.102 34.605C51.183 35.2641 52.076 36.2056 52.64 37.3354L57.434 35.0758C56.447 33.0986 54.943 31.498 53.016 30.4153C50.995 29.2855 48.739 28.7206 46.389 28.7206C43.005 28.6735 39.762 29.9916 37.318 32.3925C36.143 33.5223 35.203 34.8874 34.545 36.3939C33.182 39.5008 33.182 43.0785 34.498 46.1855C35.156 47.6919 36.049 49.0571 37.177 50.234C38.211 51.2696 39.433 52.117 40.749 52.776C41.6733 53.1931 42.5977 53.5315 43.522 53.6705V53.6705Z" fill="#C79B3B"/>
</g>
<defs>
<clipPath id="clip0">
<rect width="141" height="54" fill="white"/>
</clipPath>
</defs>
</svg>
