<svg width="158" height="40" viewBox="0 0 158 40" fill="none" xmlns="http://www.w3.org/2000/svg">
<path d="M20.6653 39.7084C8.27747 39.7042 0 30.8141 0 20.0351C0 9.25611 8.29635 0.264037 20.6465 0.291659H137.354C149.704 0.264034 158 9.25611 158 20.0351C158 30.8141 149.723 39.7042 137.335 39.7084H20.6653ZM20.7031 5.14041C10.896 5.15953 4.87626 11.7973 4.87626 20.0096C4.87626 28.2197 10.8583 34.9128 20.7031 34.8767H137.297C147.142 34.9107 153.126 28.2197 153.126 20.0096C153.126 11.7995 147.106 5.16165 137.299 5.14252L20.7031 5.14041ZM143.568 12.0714C144.46 12.0714 144.903 12.3774 144.903 12.983C144.903 13.3994 144.647 13.7139 144.221 13.8223L144.92 15.2352H144.074L143.476 13.9391H143.105V15.2352H142.343V12.0714H143.568ZM143.499 10.8348C141.942 10.8348 140.679 12.1139 140.679 13.6905C140.679 15.2671 141.942 16.5462 143.499 16.5462C145.056 16.5462 146.319 15.2671 146.319 13.6905C146.319 12.1139 145.056 10.8348 143.499 10.8348ZM145.78 13.6926C145.78 14.9675 144.758 16.0023 143.499 16.0023C142.24 16.0023 141.218 14.9675 141.218 13.6926C141.218 12.4178 142.24 11.383 143.499 11.383C144.758 11.383 145.78 12.4156 145.78 13.6926ZM143.105 13.4759H143.476C143.91 13.4759 144.12 13.342 144.12 13.0276C144.12 12.6982 143.896 12.5559 143.438 12.5559H143.105V13.4759ZM79.3693 21.208C79.3609 20.1265 79.384 19.404 79.7344 18.7878C80.1645 18.0272 80.9555 17.666 81.6731 17.6617H81.671C82.3886 17.666 83.1796 18.0272 83.6097 18.7878C83.9601 19.4062 83.9748 20.1286 83.9664 21.2101L79.3693 21.208ZM83.9476 24.9285C83.9476 24.9285 83.9518 24.9837 83.9518 25.6764C83.9518 27.9329 82.4851 28.4343 81.671 28.4343C80.8569 28.4343 79.3651 27.9329 79.3651 25.6764C79.3651 25.0007 79.3693 23.1288 79.3693 23.1288C79.3693 23.1288 89.7492 23.133 89.7492 23.1266C89.7492 19.2999 86.1004 16.1297 81.6186 16.1297C77.1368 16.1297 73.5048 19.2319 73.5048 23.0586C73.5048 26.8853 77.1368 29.9854 81.6186 29.9854C85.3366 29.9854 88.4777 27.8372 89.4365 24.9242L83.9476 24.9285ZM101.285 16.3359C103.346 16.2764 107.525 17.6426 107.496 22.5275C107.492 23.3944 107.494 29.2418 107.494 29.2418H102.019C102.019 29.2418 102.019 21.9092 102.019 21.1379C102.019 20.0627 101.004 18.8665 99.5016 18.8665C98.0014 18.8665 96.8851 20.0627 96.8851 21.1379C96.8851 21.6648 96.8914 29.2418 96.8914 29.2418H91.4214L91.4256 16.9032L96.8935 16.8989C96.8935 16.8989 96.8872 17.8912 96.8935 18.1972C97.9468 17.1794 99.466 16.389 101.285 16.3359H101.285ZM56.505 16.3359C58.5655 16.2764 62.7451 17.6426 62.7157 22.5275C62.7115 23.3944 62.7136 29.2418 62.7136 29.2418H57.2393C57.2393 29.2418 57.2393 21.9092 57.2393 21.1379C57.2393 20.0627 56.2238 18.8665 54.7215 18.8665C53.2212 18.8665 52.105 20.0627 52.105 21.1379C52.105 21.6648 52.1113 29.2418 52.1113 29.2418H46.6412L46.6391 16.9032L52.1133 16.8989C52.1133 16.8989 52.107 17.8912 52.1133 18.1972C53.1666 17.1794 54.6836 16.389 56.5049 16.3359H56.505ZM119.372 10.6903H124.81V29.246H119.363C119.363 29.246 119.361 28.6468 119.361 28.5321C117.253 29.8728 114.873 29.8707 113.02 28.9953C112.523 28.7616 109.252 27.1722 109.252 22.878C109.252 19.6208 112.286 16.0639 116.258 16.4166C117.565 16.5335 118.495 17.0158 119.376 17.5172C119.372 14.6615 119.372 10.6903 119.372 10.6903H119.372ZM119.412 23.014C119.412 23.014 119.412 21.4672 119.412 20.8085C119.412 18.9005 118.111 18.4139 117.255 18.4139C116.378 18.4139 115.094 18.9005 115.094 20.8085C115.094 21.4417 115.096 23.0077 115.096 23.0077C115.096 23.0077 115.094 24.546 115.094 25.2025C115.094 27.1085 116.378 27.6078 117.253 27.6078C118.111 27.6078 119.414 27.1085 119.414 25.2025C119.414 24.41 119.412 23.014 119.412 23.014H119.412ZM136.871 22.9779C136.871 22.9779 136.869 24.8435 136.869 25.5914C136.869 27.5589 135.721 28.3706 134.617 28.3706C133.512 28.3706 132.36 27.5589 132.36 25.5914C132.36 24.8435 132.362 22.9312 132.362 22.9312C132.362 22.9312 132.366 21.106 132.366 20.3581C132.366 18.399 133.52 17.5937 134.617 17.5937C135.717 17.5937 136.869 18.399 136.869 20.3581C136.869 21.106 136.867 22.4892 136.873 22.9843L136.871 22.9779ZM134.657 16.0639C130.209 16.0639 126.604 19.1661 126.604 22.9928C126.604 26.8195 130.211 29.9217 134.657 29.9217C139.106 29.9217 142.71 26.8195 142.71 22.9928C142.71 19.1661 139.106 16.0639 134.657 16.0639ZM38.0827 14.4788V10.6861H43.6052V14.4788H38.0827ZM38.0952 29.246V16.9053L43.6052 16.9075V29.2461L38.0952 29.246ZM65.7393 29.246L65.7414 16.9308H62.7452V15.0992L65.7435 15.0971L65.7393 12.5983H71.2534V15.0949H74.2371V16.9307H71.2534L71.2576 29.246L65.7393 29.246ZM15.6716 29.246L15.6737 10.6903H21.3829L29.2806 23.6302L29.2764 10.6903H34.9416V29.246H29.2848L21.3452 16.3061V29.246H15.6716Z" fill="white"/>
</svg>
