<svg width="89" height="29" viewBox="0 0 89 29" fill="none" xmlns="http://www.w3.org/2000/svg">
<g clip-path="url(#clip0)">
<path d="M38.5666 28.5816H31.357L35.8664 0.508881H43.0756L38.5666 28.5816Z" fill="#00579F"/>
<path d="M64.7021 1.19517C63.2801 0.627157 61.0246 0 58.2357 0C51.1159 0 46.1022 3.82248 46.0715 9.28747C46.0124 13.3195 49.6611 15.559 52.3901 16.9034C55.1794 18.2772 56.1276 19.1739 56.1276 20.3984C56.0992 22.2791 53.8737 23.146 51.798 23.146C48.9195 23.146 47.3773 22.6991 45.0334 21.6528L44.0841 21.2042L43.0752 27.506C44.7661 28.2816 47.8815 28.9698 51.1159 29C58.6808 29 63.6057 25.2367 63.6641 19.4129C63.6928 16.2171 61.7661 13.7685 57.6123 11.7675C55.0907 10.483 53.5465 9.61692 53.5465 8.30267C53.576 7.1079 54.8526 5.88415 57.6991 5.88415C60.0429 5.82422 61.765 6.39143 63.0695 6.95905L63.7216 7.25715L64.7021 1.19517V1.19517Z" fill="#00579F"/>
<path d="M74.2843 18.6365C74.8781 17.0237 77.1627 10.7819 77.1627 10.7819C77.1328 10.8419 77.7553 9.13942 78.1113 8.09429L78.6151 10.5132C78.6151 10.5132 79.9804 17.2329 80.2769 18.6365C79.1501 18.6365 75.7083 18.6365 74.2843 18.6365ZM83.1837 0.508881H77.607C75.8873 0.508881 74.5808 1.01616 73.8388 2.83809L63.1298 28.5813H70.6947C70.6947 28.5813 71.9401 25.1164 72.2078 24.3702C73.0377 24.3702 80.3967 24.3702 81.4644 24.3702C81.6713 25.3558 82.3246 28.5813 82.3246 28.5813H89L83.1837 0.508881V0.508881Z" fill="#00579F"/>
<path d="M25.3352 0.508881L18.2746 19.6518L17.5031 15.7694C16.1977 11.2896 12.1038 6.42241 7.53527 4.0023L14.0025 28.5519H21.6265L32.9588 0.508881H25.3352V0.508881Z" fill="#00579F"/>
<path d="M11.7182 0.508881H0.118668L0 1.0761C9.0484 3.40571 15.041 9.02113 17.5031 15.7706L14.9814 2.86865C14.5663 1.0757 13.2905 0.568024 11.7182 0.508881Z" fill="#FAA61A"/>
</g>
<defs>
<clipPath id="clip0">
<rect width="89" height="29" fill="white"/>
</clipPath>
</defs>
</svg>
