<svg width="154" height="26" viewBox="0 0 154 26" fill="none" xmlns="http://www.w3.org/2000/svg">
<g clip-path="url(#clip0)">
<path d="M11.3806 0.108505C10.4171 0.22926 9.17823 0.519757 8.39613 0.826202C7.5279 1.15657 6.46243 1.68972 6.46243 1.79452C6.46243 1.85946 6.65172 1.91528 6.96003 1.94832C8.06516 2.07705 10.1179 2.95651 11.9734 4.07749C12.4234 4.35203 12.8654 4.5776 12.9447 4.5776C13.032 4.5776 13.4661 4.35203 13.9082 4.07749C14.9657 3.42472 16.7113 2.56121 17.516 2.28666C17.8787 2.1659 18.4477 2.02806 18.7867 1.97224C19.197 1.91528 19.4101 1.84351 19.4101 1.77858C19.4101 1.54504 17.5704 0.746458 16.2919 0.424064C14.6098 -0.00427611 13.0626 -0.101108 11.3806 0.108505ZM3.74664 3.86673C1.63839 6.06084 0.493583 8.43949 0.107069 11.488C-0.0742858 12.9074 -0.0266801 14.1173 0.272556 15.6655C0.564991 17.1578 1.23601 18.8347 2.0249 20.0206C2.5463 20.8112 2.63244 20.8033 2.69591 19.9557C2.94074 16.7785 5.35617 12.4142 9.37432 7.93027C9.72116 7.53496 10.0136 7.16358 10.0136 7.11574C10.0136 7.00296 8.81325 5.80907 7.92915 5.03442C6.74467 4.0023 5.20542 3.04195 4.75543 3.04195C4.58314 3.04423 4.36212 3.22878 3.74664 3.86673ZM20.5379 3.27777C19.5347 3.7699 18.1848 4.80202 16.8824 6.08476C16.361 6.59284 15.9348 7.06903 15.9348 7.13283C15.9348 7.19662 16.3214 7.6899 16.7951 8.22988C20.2058 12.1089 22.3684 15.8113 23.0394 18.9088C23.1267 19.3041 23.197 19.844 23.197 20.1186C23.197 20.5697 23.2129 20.6267 23.3466 20.6267C23.528 20.6267 24.2466 19.4977 24.6966 18.4895C25.6124 16.4811 25.9354 14.8122 25.8572 12.5053C25.7779 9.83615 25.0683 7.65002 23.6073 5.55275C22.9363 4.58443 21.4605 3.04423 21.2077 3.04423C21.1069 3.04423 20.8065 3.14904 20.5379 3.27777ZM12.0674 10.3989C10.1961 12.0599 7.72512 14.6732 6.32075 16.488C4.8291 18.4075 3.22638 21.0049 3.22638 21.4879C3.22638 21.6417 4.05494 22.5041 4.8053 23.1409C7.44175 25.3669 11.2706 26.399 14.8705 25.859C17.6498 25.4398 20.1752 24.1491 22.2755 22.0849C22.5996 21.7704 22.6461 21.6816 22.6461 21.3911C22.6382 19.9067 19.7886 16.2294 15.0757 11.6236C13.7971 10.3739 13.0864 9.7359 12.9754 9.7359C12.8801 9.73818 12.4936 10.0207 12.0674 10.3989Z" fill="white"/>
<path d="M29.1529 4.02252L35.9718 13.3321L28.4943 23.5712H31.0548L37.2606 15.0956L43.4731 23.5712H46.0314L38.5539 13.3321L45.3785 4.02252H42.8202L37.2583 11.6176L31.702 4.02252H29.1529Z" fill="white"/>
<path d="M80.1238 4.02252L86.9485 13.3321L79.4744 23.5746H82.0349L88.244 15.0956L94.4554 23.5746H97.0137L89.5362 13.3321L96.3551 4.02252H93.8003L88.244 11.6176L82.6809 4.02252H80.1238Z" fill="white"/>
<path d="M72.2055 3.56912C66.7421 3.56912 62.9246 7.7705 62.9246 13.7843C62.9246 19.8073 66.7433 24.0053 72.2055 24.0053C77.6654 24.0053 81.4716 19.8073 81.4716 13.7843C81.4716 7.7705 77.6654 3.56912 72.2055 3.56912ZM72.2055 5.63905C76.3619 5.63905 79.2625 8.98831 79.2625 13.7855C79.2625 18.5861 76.3608 21.941 72.2055 21.941C68.0434 21.941 65.127 18.5861 65.127 13.7855C65.127 8.98831 68.0434 5.63905 72.2055 5.63905Z" fill="white"/>
<path d="M47.0934 4.02252V12.4515H44.4627C44.1204 12.898 43.3462 13.9712 43.0504 14.412H47.0934V23.5712L54.9937 23.5746C59.2725 23.5746 61.9317 21.3897 61.9317 17.8672C61.9317 16.3282 61.3525 15.0181 60.253 14.0714C59.8472 13.724 59.4063 13.454 58.979 13.2558C60.3901 12.4857 61.3162 11.0309 61.3162 9.34259C61.3162 8.09175 60.8583 4.02252 54.9937 4.02252H47.0934V4.02252ZM49.2776 6.06283H54.9937C56.542 6.06283 59.132 6.44902 59.132 9.16944C59.132 11.2257 57.6222 12.4515 54.9937 12.4515H49.2776V6.06283ZM49.2776 14.4155H54.9937C57.1609 14.4155 59.7543 15.0181 59.7543 17.824C59.7543 21.0502 56.7733 21.5332 54.9937 21.5332H49.2776V14.4155Z" fill="white"/>
<path fill-rule="evenodd" clip-rule="evenodd" d="M106.215 4.01341L103.876 4.01911V23.5564H116.811V21.3919H106.21L106.215 4.01341Z" fill="white"/>
<path fill-rule="evenodd" clip-rule="evenodd" d="M153.988 4.01569C153.988 4.01569 144.758 4.0191 140.225 4.0191V23.5564H154V21.3919H142.559V14.7208L153.145 14.7299L153.161 12.5563H142.56V6.18359H153.98L153.988 4.01569Z" fill="white"/>
<path d="M120.523 4.0191H118.247V23.5564H120.523V4.0191Z" fill="white"/>
<path fill-rule="evenodd" clip-rule="evenodd" d="M122.261 4.0191L129.087 23.5564H132.081L138.967 4.0191H136.513L130.583 20.8531L124.717 4.0191H122.261Z" fill="white"/>
</g>
<defs>
<clipPath id="clip0">
<rect width="154" height="26" fill="white"/>
</clipPath>
</defs>
</svg>
