<svg width="140" height="28" viewBox="0 0 140 28" fill="none" xmlns="http://www.w3.org/2000/svg">
<path fill-rule="evenodd" clip-rule="evenodd" d="M61.105 6.91625C60.101 6.35625 58.5879 6.09025 56.5091 6.09025C53.6667 6.09025 51.0222 6.69225 50.0323 7.07025C49.8998 7.10551 49.7819 7.18137 49.6955 7.28699C49.6091 7.3926 49.5587 7.52256 49.5515 7.65825V7.74225L49.8343 9.15625V9.18425C49.9333 9.46425 50.1737 9.60425 50.4 9.60425L50.5697 9.57625L51.0364 9.46425C52.2808 9.15625 54.1475 8.68025 56.2404 8.68025C57.5131 8.68025 58.3616 8.79225 58.9273 9.03025C59.8606 9.39425 59.8747 9.99625 59.8889 10.9903V12.4883H59.3232C58.2909 12.4883 56.2828 12.5303 54.303 12.8523C51.2768 13.3143 48.7879 14.0423 48.7879 18.2283C48.7879 23.5483 53.6949 23.5483 56.0566 23.5623C57.6545 23.5623 59.1252 23.3243 60.101 23.1283C62.2929 22.6103 62.8586 21.9103 62.8303 19.7123V10.8643C62.8303 9.52025 62.8303 7.84025 61.105 6.91625ZM59.903 20.5803C58.6685 20.967 57.3796 21.156 56.0848 21.1403V21.2803V21.1403C53.9212 21.1403 51.8 20.8883 51.8 18.1023C51.8 15.8903 52.9879 15.6243 54.4727 15.3023L54.5717 15.2743C55.8869 14.9943 59.2101 14.9383 59.903 14.9243V20.5803ZM87.3374 10.8643V19.7123C87.3798 21.9103 86.8141 22.6103 84.6081 23.1143C83.6465 23.3243 82.1757 23.5623 80.5778 23.5623C78.2162 23.5623 73.3091 23.5483 73.3091 18.2283C73.2949 14.0423 75.7838 13.3143 78.8242 12.8523C80.804 12.5303 82.8121 12.4743 83.8303 12.4743H84.396V11.0043C84.396 10.0103 84.3818 9.40825 83.4485 9.04425C82.8828 8.80625 82.0343 8.69425 80.7616 8.69425C78.6687 8.69425 76.802 9.17025 75.5576 9.47825L75.0768 9.59025C75.0034 9.61368 74.9261 9.62203 74.8494 9.6148C74.7727 9.60758 74.6983 9.58491 74.6308 9.54821C74.5632 9.51151 74.504 9.46153 74.4567 9.40135C74.4093 9.34118 74.3749 9.27206 74.3555 9.19825V9.17025L74.0727 7.75625V7.67225C74.0727 7.35025 74.3131 7.14025 74.5394 7.07025C75.5434 6.70625 78.1879 6.10425 81.0303 6.10425C83.1091 6.10425 84.6081 6.38425 85.6263 6.94425C87.3515 7.85425 87.3515 9.53425 87.3374 10.8783V10.8643ZM84.4242 14.9243C83.7172 14.9243 80.4081 14.9943 79.0929 15.2743L78.9798 15.3023C77.4949 15.6243 76.3212 15.8903 76.3071 18.1023C76.3071 20.8883 78.4283 21.1403 80.6061 21.1543V21.2803V21.1403C81.9008 21.156 83.1897 20.967 84.4242 20.5803V14.9243ZM131.756 6.09025C124.925 6.09025 124.345 10.6123 124.345 14.8403C124.345 19.0543 124.925 23.5483 131.756 23.5623C138.586 23.5483 139.166 19.0683 139.18 14.8403C139.18 10.4163 138.586 6.10425 131.756 6.09025ZM131.756 21.0843C127.612 21.0843 127.4 18.9283 127.372 14.8403C127.414 10.7243 127.612 8.58225 131.756 8.55425C135.899 8.58225 136.111 10.7243 136.139 14.8403C136.111 18.9283 135.899 21.0703 131.756 21.0843ZM119.495 22.9322L119.325 22.9883C118.364 23.2262 117.063 23.5483 114.758 23.5483C108.436 23.5483 107.192 20.3423 107.192 14.8123C107.192 8.45625 109.2 6.10425 114.574 6.09025C116.469 6.09025 117.784 6.34225 118.717 6.56625V1.45625C118.703 1.23225 118.802 0.93825 119.325 0.84025L121.008 0.40625H121.107C121.489 0.40625 121.63 0.75625 121.63 1.05025V20.2583C121.644 21.4763 121.503 22.5122 119.509 22.9322H119.495ZM118.703 9.03025C118.137 8.89025 116.582 8.52625 114.814 8.52625C111.59 8.55425 110.218 9.43625 110.19 14.8403C110.232 20.7763 111.986 21.0983 114.857 21.1263V21.2523V21.1123C116.638 21.1123 118.166 20.7483 118.703 20.5943V9.03025ZM103.628 23.1563H102.129C101.942 23.1563 101.762 23.0825 101.629 22.9512C101.497 22.8199 101.422 22.6419 101.422 22.4563V11.0323C101.394 9.11425 100.814 8.56825 98.7353 8.54025C96.4161 8.54025 94.0404 9.12825 93.2626 9.35225V22.4283C93.2626 22.8483 92.9798 23.1423 92.598 23.1423H91.0566C90.869 23.1423 90.6892 23.0685 90.5566 22.9372C90.424 22.8059 90.3495 22.6279 90.3495 22.4423V9.66025C90.3353 8.48425 90.4343 7.67225 92.1172 7.12625C93.7151 6.56625 96.7838 6.09025 98.8061 6.09025C102.667 6.09025 104.321 7.49025 104.321 10.7803V22.4563C104.321 22.6419 104.247 22.8199 104.114 22.9512C103.981 23.0825 103.802 23.1563 103.614 23.1563H103.628ZM69.604 23.4643C70.4808 23.4503 71.1172 23.2822 71.3576 22.9883C71.3999 22.9461 71.4331 22.8957 71.455 22.8403C71.4769 22.7849 71.487 22.7257 71.4848 22.6663C71.4848 22.5683 71.4848 22.5683 71.2444 21.4483V21.4203C71.1737 21.1403 70.9757 21.0003 70.8061 21.0003H70.3535C69.7313 20.9863 69.2222 20.8883 69.2222 19.9923V1.05025C69.2222 0.74225 69.0242 0.40625 68.6566 0.40625H68.5576L66.8606 0.84025C66.5778 0.86825 66.2949 1.07825 66.2949 1.45625V20.0483C66.2949 22.2463 67.4828 23.4643 69.604 23.4643ZM45.8465 23.1563H33.798C33.6104 23.1563 33.4306 23.0825 33.298 22.9512C33.1654 22.8199 33.0909 22.6419 33.0909 22.4563V20.9722C33.0909 20.6083 33.204 20.4403 33.4303 20.1603L43.0182 8.96025H33.6141C33.4266 8.96025 33.2468 8.8865 33.1142 8.75523C32.9816 8.62395 32.9071 8.4459 32.9071 8.26025V7.19625C32.9071 6.79025 33.2182 6.49625 33.6141 6.49625H45.7899C46.2 6.49625 46.497 6.80425 46.497 7.19625V8.70825C46.497 8.98825 46.4121 9.21225 46.2 9.46425L36.5838 20.6923H45.8606C46.2566 20.6923 46.5677 21.0003 46.5677 21.3923V22.4563C46.5677 22.6419 46.4932 22.8199 46.3606 22.9512C46.228 23.0825 46.0481 23.1563 45.8606 23.1563H45.8465Z" fill="#1D1D1B"/>
<path fill-rule="evenodd" clip-rule="evenodd" d="M5.61357 27.8601C4.58125 27.8601 4.01559 27.6081 3.71862 27.4401C3.29438 27.1881 2.5166 26.5721 1.82367 24.7381C0.595963 21.2902 -0.0118841 17.6559 0.0277111 14.0001V13.9861C0.0559939 9.75814 0.72064 6.16014 1.82367 3.22014C2.54488 1.40014 3.29438 0.756145 3.71862 0.518145C4.01559 0.336145 4.58125 0.0981445 5.59943 0.0981445C5.99539 0.0981445 6.44791 0.140145 6.98529 0.224145C10.0823 0.728145 13.4903 1.94614 17.1671 4.03214C20.3527 5.83534 23.1877 8.18686 25.5388 10.9761C26.7691 12.5161 26.9105 13.4961 26.9105 13.9721C26.9105 14.4621 26.7691 15.4421 25.5388 16.9681C23.1879 19.7576 20.3529 22.1092 17.1671 23.9121H17.153C14.0233 25.7808 10.579 27.0755 6.98529 27.7341C6.44791 27.8181 5.99539 27.8461 5.61357 27.8461" fill="#FF6900"/>
</svg>
